<svg width="1156" height="710" viewBox="0 0 1156 710" fill="none" xmlns="http://www.w3.org/2000/svg">
<mask id="mask0_32_804" style="mask-type:alpha" maskUnits="userSpaceOnUse" x="-6" y="0" width="679" height="679">
<path d="M356.749 518.562C492.226 554.863 631.48 474.465 667.781 338.988C669.428 332.84 670.835 326.684 672.008 320.531C673.964 355.559 670.473 391.491 660.898 427.226C612.448 608.042 426.591 715.346 245.775 666.897C64.959 618.447 -42.3454 432.59 6.10413 251.774C54.5537 70.958 240.41 -36.3464 421.227 12.1032C430.465 14.5786 439.512 17.4127 448.355 20.5866C326.416 7.94727 209.917 85.3341 177.174 207.53C140.873 343.008 221.271 482.261 356.749 518.562Z" fill="#D9D9D9"/>
</mask>
<g mask="url(#mask0_32_804)">
<path d="M636.215 318.659C636.304 258.711 619.372 199.97 587.387 149.267C615.428 197.923 623.921 255.42 611.144 310.104C598.366 364.789 565.275 412.569 518.577 443.762C471.879 474.954 415.068 487.223 359.659 478.084C304.25 468.944 254.389 439.079 220.183 394.542C185.976 350.005 169.982 294.128 175.444 238.237C180.906 182.346 207.414 130.622 249.596 93.5498C291.778 56.4775 346.477 36.8303 402.607 38.5905C458.737 40.3507 512.098 63.3866 551.874 103.029C501.59 48.5519 433.857 13.351 360.377 3.50917C286.897 -6.3327 212.287 9.80272 149.44 49.1272C86.5933 88.4518 39.4574 148.495 16.1777 218.881C-7.10198 289.267 -5.06292 365.574 21.9424 434.617C48.9478 503.659 99.2229 561.1 164.08 597.012C228.938 632.924 304.302 645.052 377.152 631.3C450.001 617.548 515.759 578.78 563.061 521.695C610.363 464.611 636.238 392.796 636.215 318.659Z" fill="url(#paint0_radial_32_804)"/>
<path d="M636.215 318.659C636.304 258.711 619.372 199.97 587.387 149.267C615.428 197.922 623.921 255.42 611.144 310.104C598.366 364.789 565.275 412.569 518.577 443.761C471.879 474.953 415.068 487.223 359.659 478.084C304.25 468.944 254.389 439.079 220.183 394.542C185.976 350.005 169.982 294.128 175.444 238.237C180.906 182.346 207.414 130.622 249.596 93.5497C291.778 56.4774 346.477 36.8301 402.607 38.5903C458.737 40.3505 512.098 63.3864 551.874 103.029C532.7 82.2551 510.858 64.1144 486.917 49.0808C409.938 26.9473 327.368 35.6124 256.66 73.2446C185.953 110.877 132.647 174.527 108.011 250.743C83.3749 326.958 89.3382 409.767 124.641 481.666C159.943 553.566 221.818 608.921 297.188 636.034C304.089 636.479 311.07 636.742 318.092 636.742C359.867 636.748 401.233 628.524 439.829 612.541C478.426 596.559 513.496 573.13 543.037 543.592C572.578 514.055 596.011 478.988 611.999 440.394C627.987 401.799 636.215 360.434 636.215 318.659Z" fill="url(#paint1_radial_32_804)"/>
<path d="M636.215 318.659C636.304 258.711 619.372 199.97 587.387 149.267C615.428 197.922 623.921 255.42 611.144 310.104C598.366 364.789 565.275 412.569 518.577 443.761C471.879 474.953 415.068 487.223 359.659 478.084C304.25 468.944 254.389 439.079 220.183 394.542C185.976 350.005 169.982 294.128 175.444 238.237C180.906 182.346 207.414 130.622 249.596 93.5497C291.778 56.4774 346.477 36.8301 402.607 38.5903C458.737 40.3505 512.098 63.3864 551.874 103.029C532.7 82.2551 510.858 64.1144 486.917 49.0808C409.938 26.9473 327.368 35.6124 256.66 73.2446C185.953 110.877 132.647 174.527 108.011 250.743C83.3749 326.958 89.3382 409.767 124.641 481.666C159.943 553.566 221.818 608.921 297.188 636.034C304.089 636.479 311.07 636.742 318.092 636.742C359.867 636.748 401.233 628.524 439.829 612.541C478.426 596.559 513.496 573.13 543.037 543.592C572.578 514.055 596.011 478.988 611.999 440.394C627.987 401.799 636.215 360.434 636.215 318.659Z" fill="url(#paint2_radial_32_804)"/>
<path d="M578.523 383.413C552.984 421.049 516.454 449.887 473.918 465.991C431.381 482.096 384.912 484.682 340.851 473.398C296.791 462.113 257.285 437.507 227.727 402.938C198.169 368.37 179.998 325.522 175.695 280.243C171.391 234.964 181.164 189.461 203.68 149.942C226.196 110.424 260.359 78.816 301.504 59.4327C342.65 40.0493 388.775 33.8348 433.583 41.6373C478.392 49.4397 519.701 70.879 551.873 103.029C523.19 71.9165 488.585 46.8418 450.086 29.2743C411.588 11.7067 369.971 1.99967 327.673 0.721918C285.375 -0.555836 243.247 6.62143 203.759 21.8331C164.27 37.0448 128.215 59.985 97.7057 89.3093C61.719 152.95 51.857 228.081 70.1998 298.853C88.5427 369.626 133.656 430.508 196.025 468.657C258.394 506.807 333.141 519.241 404.502 503.338C475.862 487.434 538.256 444.436 578.523 383.413Z" fill="url(#paint3_radial_32_804)"/>
<path d="M590.626 363.44C612.196 324.231 624.068 280.428 625.249 235.693C617.023 205.14 604.261 175.994 587.388 149.227C606.024 181.729 616.097 218.433 616.664 255.895C617.23 293.357 608.271 330.349 590.626 363.4L590.626 363.44Z" fill="url(#paint4_radial_32_804)"/>
<path d="M636.215 318.659C636.304 258.711 619.372 199.97 587.387 149.267C615.428 197.922 623.921 255.42 611.144 310.104C598.366 364.789 565.275 412.569 518.577 443.761C471.879 474.953 415.068 487.223 359.659 478.084C304.25 468.944 254.389 439.079 220.183 394.542C185.976 350.005 169.982 294.128 175.444 238.237C180.906 182.346 207.414 130.622 249.596 93.5497C291.778 56.4774 346.477 36.8301 402.607 38.5903C458.737 40.3505 512.098 63.3864 551.874 103.029C532.7 82.2551 510.858 64.1144 486.917 49.0808C409.938 26.9473 327.368 35.6124 256.66 73.2446C185.953 110.877 132.647 174.527 108.011 250.743C83.3749 326.958 89.3382 409.767 124.641 481.666C159.943 553.566 221.818 608.921 297.188 636.034C304.089 636.479 311.07 636.742 318.092 636.742C359.867 636.748 401.233 628.524 439.829 612.541C478.426 596.559 513.496 573.13 543.037 543.592C572.578 514.055 596.011 478.988 611.999 440.394C627.987 401.799 636.215 360.434 636.215 318.659Z" fill="url(#paint5_radial_32_804)"/>
<path d="M578.524 383.413C552.985 421.049 516.455 449.887 473.919 465.991C431.382 482.096 384.913 484.682 340.852 473.397C296.792 462.113 257.286 437.507 227.728 402.938C198.17 368.369 179.999 325.522 175.696 280.243C171.392 234.964 181.165 189.461 203.681 149.942C226.197 110.424 260.359 78.8159 301.505 59.4326C342.651 40.0493 388.776 33.8347 433.584 41.6372C478.393 49.4396 519.739 56.6251 551.911 88.7752C523.227 57.6627 488.623 32.588 450.124 15.0204C411.626 -2.54712 369.998 -8.30183 327.701 -9.57958C285.403 -10.8573 243.248 6.62134 203.76 21.833C164.271 37.0447 128.216 59.9849 97.7067 89.3092C61.72 152.95 51.858 228.081 70.2008 298.853C88.5437 369.626 133.657 430.508 196.026 468.657C258.395 506.807 333.142 519.241 404.503 503.337C475.863 487.434 538.257 444.436 578.524 383.413Z" fill="url(#paint6_radial_32_804)"/>
<path d="M395.736 38.3352C366.544 38.0559 337.585 43.5644 310.534 54.5425C283.483 65.5206 258.876 81.7507 238.134 102.295C217.393 122.839 200.928 147.29 189.691 174.235C178.455 201.179 172.67 230.084 172.67 259.277C172.67 288.471 178.455 317.376 189.691 344.32C200.928 371.265 217.393 395.716 238.134 416.26C258.876 436.804 283.483 453.034 310.534 464.012C337.585 474.991 366.544 480.499 395.736 480.22C397.922 480.22 400.087 480.22 402.232 480.22C402.92 480.22 403.588 480.22 404.256 480.22C405.753 480.22 407.271 480.098 408.768 480.017C409.517 480.017 410.266 480.017 411.014 479.876C412.512 479.775 413.989 479.653 415.466 479.511C416.134 479.511 416.822 479.512 417.49 479.35C419.513 479.147 421.537 478.925 423.56 478.682C423.682 478.682 423.783 478.682 423.904 478.682C425.928 478.419 428.113 478.115 430.198 477.771C430.805 477.771 431.412 477.569 432.039 477.468C433.516 477.225 435.014 476.982 436.491 476.699C437.199 476.557 437.887 476.436 438.514 476.294C439.971 476.011 441.408 475.707 442.845 475.404L444.747 474.979C446.649 474.554 448.531 474.109 450.413 473.623C450.555 473.623 450.676 473.623 450.818 473.522C452.841 472.996 454.865 472.449 456.888 471.862C457.414 471.721 457.941 471.559 458.467 471.397C459.964 470.952 461.441 470.507 462.919 470.041L464.8 469.434L469.07 467.977L470.75 467.37C472.571 466.723 474.392 466.035 476.213 465.347L476.537 465.225C478.561 464.456 480.443 463.647 482.365 462.837L483.599 462.291C485.097 461.643 486.594 460.976 488.071 460.267C488.598 460.025 489.144 459.782 489.67 459.519C491.086 458.851 492.483 458.183 493.879 457.495L495.295 456.787C497.056 455.897 498.816 454.986 500.557 454.055L500.739 453.934C502.621 452.922 504.482 451.91 506.324 450.817L507.154 450.332C508.651 449.441 510.148 448.551 511.646 447.62L512.941 446.831C514.317 445.961 515.693 445.071 516.988 444.18L518.141 443.411C519.841 442.278 521.521 441.145 523.18 439.971C524.947 438.717 526.688 437.442 528.401 436.147L528.866 435.803C530.364 434.669 531.841 433.516 533.298 432.342L534.31 431.533C535.645 430.46 536.961 429.368 538.357 428.275L539.267 427.506C542.485 424.754 545.642 421.901 548.697 418.967L548.819 418.845C550.276 417.469 551.692 416.053 553.109 414.616L553.857 413.827C555.112 412.572 556.326 411.277 557.54 409.982L558.248 409.213C562.538 404.559 566.646 399.702 570.531 394.704L571.118 393.915C572.231 392.478 573.304 391.021 574.376 389.564C574.578 389.301 574.781 389.038 574.963 388.755C576.177 387.075 577.371 385.396 578.524 383.676C551.436 424.577 514.146 457.705 470.337 479.786C426.529 501.867 377.718 512.137 328.726 509.583C279.735 507.028 232.257 491.738 190.982 465.221C149.708 438.704 116.065 401.878 93.3763 358.381C93.2145 354.226 93.1335 350.058 93.1335 345.876C93.1015 305.341 101.058 265.197 116.548 227.739C132.038 190.28 154.757 156.242 183.409 127.568C212.06 98.8943 246.081 76.1477 283.527 60.6284C320.973 45.109 361.11 37.1211 401.645 37.1211L395.736 38.3352Z" fill="url(#paint7_radial_32_804)"/>
</g>
<circle cx="339.524" cy="249.829" r="26.3063" fill="url(#paint8_linear_32_804)"/>
<circle cx="353.858" cy="138.306" r="34.4005" fill="url(#paint9_linear_32_804)"/>
<circle cx="417.79" cy="86.7808" r="17.2002" fill="url(#paint10_linear_32_804)"/>
<circle cx="300.368" cy="100.416" r="13.1531" fill="url(#paint11_linear_32_804)"/>
<path d="M275.302 291.207C281.139 279.169 284.412 265.657 284.412 251.379C284.412 200.912 243.514 160 193.064 160C145.823 160 106.958 195.872 102.204 241.872C79.0973 251.532 38.6163 277.354 29.8693 317.98C20.4826 361.574 89.2946 394.393 131.274 396.784C138.118 417.254 163.465 440.35 200.446 459.859C215.494 467.798 228.993 473.204 241.483 478.206C259.686 485.495 275.747 491.926 291.343 504.092C298.758 509.876 303.076 537.626 303.076 548.524C302.1 552.25 300.986 555.799 299.758 559.708C297.33 567.44 294.46 576.58 291.343 591.28C286.65 613.412 289.388 645.213 291.343 658.347L283.801 680.144C287.823 702.276 352.521 711.267 383.529 709.486C388.989 703.241 388.489 693.821 387.999 684.576C387.859 681.941 387.72 679.32 387.72 676.791C387.72 665.389 364.254 654.714 352.521 650.802C358.556 640.742 377.384 580.661 386.044 551.878C383.809 551.598 385.876 551.71 412.024 554.393C438.171 557.075 468.632 553.269 487.627 546.562C506.623 539.856 498.344 522.536 498.344 522.536C492.31 510.463 470.129 505.21 459.793 504.092C472.364 466.367 470.688 418.581 459.793 400.138C451.077 385.383 388 379.458 357.55 380.017C356.432 376.664 351.181 366.268 339.113 351.514C327.044 336.759 297.21 314.068 283.801 304.567L275.302 291.207Z" fill="url(#paint12_radial_32_804)"/>
<path d="M275.302 291.207C281.139 279.169 284.412 265.657 284.412 251.379C284.412 200.912 243.514 160 193.064 160C145.823 160 106.958 195.872 102.204 241.872C79.0973 251.532 38.6163 277.354 29.8693 317.98C20.4826 361.574 89.2946 394.393 131.274 396.784C138.118 417.254 163.465 440.35 200.446 459.859C215.494 467.798 228.993 473.204 241.483 478.206C259.686 485.495 275.747 491.926 291.343 504.092C298.758 509.876 303.076 537.626 303.076 548.524C302.1 552.25 300.986 555.799 299.758 559.708C297.33 567.44 294.46 576.58 291.343 591.28C286.65 613.412 289.388 645.213 291.343 658.347L283.801 680.144C287.823 702.276 352.521 711.267 383.529 709.486C388.989 703.241 388.489 693.821 387.999 684.576C387.859 681.941 387.72 679.32 387.72 676.791C387.72 665.389 364.254 654.714 352.521 650.802C358.556 640.742 377.384 580.661 386.044 551.878C383.809 551.598 385.876 551.71 412.024 554.393C438.171 557.075 468.632 553.269 487.627 546.562C506.623 539.856 498.344 522.536 498.344 522.536C492.31 510.463 470.129 505.21 459.793 504.092C472.364 466.367 470.688 418.581 459.793 400.138C451.077 385.383 388 379.458 357.55 380.017C356.432 376.664 351.181 366.268 339.113 351.514C327.044 336.759 297.21 314.068 283.801 304.567L275.302 291.207Z" fill="url(#paint13_linear_32_804)"/>
<path d="M240.666 173.509C239.928 174.144 239.212 174.821 238.454 175.535C234.6 179.171 229.703 183.789 215.797 189.007C197.01 196.055 166.219 199.826 153.173 196.89L145.345 251.657C154.151 281.024 185.463 303.539 232.431 303.539C260.06 303.539 274.384 287.971 281.069 276.098C283.247 268.276 284.412 260.032 284.412 251.516C284.412 218.495 266.903 189.565 240.666 173.509Z" fill="url(#paint14_radial_32_804)"/>
<path d="M416.47 554.876C431.013 529.417 457.779 460.585 447.114 443.761C433.61 422.459 415.431 392.249 358.817 400.043C344.793 403.68 313.769 438.681 303.241 443.761C307.796 442.128 311.808 441.089 314.992 440.866C337.326 439.308 376.8 443.464 390.304 464.767C400.758 481.258 378.278 527.63 369.205 552.279C373.502 548.942 416.47 554.876 416.47 554.876Z" fill="url(#paint15_radial_32_804)"/>
<path d="M386.695 552.164C395.736 528.042 410.514 477.431 399.849 460.608C386.345 439.305 346.871 435.149 324.537 436.707C306.669 437.954 262.728 464.938 242.991 478.273C266.26 486.406 284.921 499.071 291.343 504.387C298.757 510.17 303.076 537.92 303.076 548.819C302.1 552.544 300.986 556.094 299.758 560.003C297.33 567.734 294.46 576.875 291.343 591.574C286.65 613.706 289.387 645.508 291.343 658.641L283.8 680.438C287.823 702.571 352.521 711.562 383.529 709.78C388.988 703.536 388.489 694.116 387.999 684.872L387.999 684.87C387.859 682.235 387.72 679.614 387.72 677.085C387.72 665.684 364.254 655.009 352.521 651.097C358.555 641.036 377.384 580.955 386.043 552.172C385.149 552.06 384.944 552.011 386.695 552.164Z" fill="url(#paint16_radial_32_804)"/>
<path d="M386.695 552.164C395.736 528.042 410.514 477.431 399.849 460.608C386.345 439.305 346.871 435.149 324.537 436.707C306.669 437.954 262.728 464.938 242.991 478.273C266.26 486.406 284.921 499.071 291.343 504.387C298.757 510.17 303.076 537.92 303.076 548.819C302.1 552.544 300.986 556.094 299.758 560.003C297.33 567.734 294.46 576.875 291.343 591.574C286.65 613.706 289.387 645.508 291.343 658.641L283.8 680.438C287.823 702.571 352.521 711.562 383.529 709.78C388.988 703.536 388.489 694.116 387.999 684.872L387.999 684.87C387.859 682.235 387.72 679.614 387.72 677.085C387.72 665.684 364.254 655.009 352.521 651.097C358.555 641.036 377.384 580.955 386.043 552.172C385.149 552.06 384.944 552.011 386.695 552.164Z" fill="url(#paint17_linear_32_804)"/>
<path d="M400.242 460.608C402.721 464.519 403.825 470.255 403.946 477.061C403.372 472.638 402.223 468.872 400.359 466.025C385.682 443.613 342.78 439.239 318.506 440.879C310.833 441.398 298.734 446.144 285.582 452.562C301.018 444.173 316.133 437.321 324.929 436.707C347.263 435.149 386.738 439.305 400.242 460.608Z" fill="url(#paint18_radial_32_804)"/>
<rect width="83.1134" height="59.2042" rx="15" transform="matrix(0.806041 -0.59186 0.591599 0.806232 214.944 362.985)" fill="url(#paint19_radial_32_804)"/>
<rect width="83.1134" height="59.2042" rx="15" transform="matrix(0.806041 -0.59186 0.591599 0.806232 214.944 362.985)" fill="url(#paint20_linear_32_804)"/>
<rect width="83.1134" height="59.2042" rx="17" transform="matrix(0.806041 -0.59186 0.591599 0.806232 214.944 359.868)" fill="url(#paint21_radial_32_804)"/>
<path d="M165.185 164.156C135.506 176.98 113.974 205.096 110.514 238.578C87.4077 248.238 46.9267 274.06 38.1796 314.686C28.7929 358.279 97.6049 391.099 139.584 393.49C146.428 413.96 171.775 437.056 208.756 456.565C223.804 464.504 237.303 469.91 249.793 474.911C267.997 482.2 284.057 488.632 299.653 500.798C307.068 506.582 311.386 534.331 311.386 545.23C310.414 548.946 309.302 552.486 308.077 556.384L308.068 556.414L308.065 556.426C305.637 564.155 302.768 573.294 299.653 587.985C294.961 610.117 297.698 641.919 299.653 655.053L292.111 676.85C295.878 697.576 352.858 706.778 385.548 706.4C384.988 707.43 384.321 708.403 383.529 709.309C352.521 711.09 287.823 702.099 283.801 679.967L291.343 658.17C289.387 645.036 286.65 613.235 291.343 591.103C294.457 576.411 297.326 567.272 299.755 559.544L299.758 559.532C300.985 555.622 302.1 552.073 303.076 548.347C303.076 537.449 298.758 509.699 291.343 503.915C275.747 491.749 259.686 485.318 241.483 478.029C228.993 473.027 215.494 467.621 200.446 459.682C163.465 440.173 138.118 417.077 131.273 396.607C89.2946 394.216 20.4826 361.397 29.8693 317.803C38.6163 277.177 79.0973 251.355 102.204 241.695C105.979 205.162 131.27 175.017 165.185 164.156Z" fill="url(#paint22_linear_32_804)"/>
<path d="M359.158 380.323V380.495C393.272 381.631 443.07 387.79 450.908 400.457C462.318 418.9 464.073 466.686 450.908 504.412C461.733 505.529 484.963 510.783 491.282 522.855C491.282 522.855 499.952 540.175 480.058 546.882C465.888 551.659 445.626 554.965 425.242 555.502C448.162 556.149 472.424 552.552 488.488 546.88C507.484 540.173 499.205 522.853 499.205 522.853C493.171 510.781 470.99 505.528 460.654 504.41C473.225 466.684 471.549 418.899 460.654 400.455C452.009 385.82 389.881 379.873 359.158 380.323Z" fill="url(#paint23_radial_32_804)"/>
<path d="M165.974 338.674C138.835 322.832 120.598 293.392 120.598 259.692C120.598 209.225 161.497 168.313 211.947 168.313C221.379 168.313 230.477 169.743 239.037 172.398C225.533 164.516 209.826 160 193.064 160C142.614 160 101.716 200.912 101.716 251.379C101.716 292.411 128.751 327.127 165.974 338.674Z" fill="url(#paint24_linear_32_804)"/>
<path d="M492.759 282.849H484.479L536.479 197.878H554.199V292H536.479V222.571L540.546 223.733L498.569 292H478.96L436.838 224.023L441.05 222.861V292H423.329V197.878H441.05L492.759 282.849ZM625.61 293.743C613.893 293.743 603.774 291.806 595.253 287.933C586.731 283.963 580.147 278.347 575.499 271.084C570.948 263.822 568.672 255.155 568.672 245.084C568.672 234.82 570.948 226.057 575.499 218.794C580.147 211.532 586.731 205.964 595.253 202.091C603.774 198.12 613.893 196.135 625.61 196.135C637.423 196.135 647.542 198.12 655.967 202.091C664.488 205.964 671.024 211.532 675.576 218.794C680.224 226.057 682.548 234.82 682.548 245.084C682.548 255.155 680.224 263.822 675.576 271.084C671.024 278.347 664.488 283.963 655.967 287.933C647.542 291.806 637.423 293.743 625.61 293.743ZM625.61 278.201C633.163 278.201 639.796 276.991 645.509 274.57C651.319 272.149 655.87 268.518 659.162 263.676C662.455 258.738 664.101 252.541 664.101 245.084C664.101 237.628 662.455 231.431 659.162 226.492C655.87 221.554 651.319 217.874 645.509 215.454C639.796 212.936 633.163 211.677 625.61 211.677C618.25 211.677 611.617 212.936 605.711 215.454C599.901 217.874 595.301 221.554 591.912 226.492C588.62 231.431 586.973 237.628 586.973 245.084C586.973 252.541 588.62 258.738 591.912 263.676C595.301 268.518 599.901 272.149 605.711 274.57C611.617 276.991 618.25 278.201 625.61 278.201ZM750.331 293.743C738.615 293.743 728.496 291.806 719.974 287.933C711.453 283.963 704.868 278.347 700.22 271.084C695.669 263.822 693.394 255.155 693.394 245.084C693.394 234.82 695.669 226.057 700.22 218.794C704.868 211.532 711.453 205.964 719.974 202.091C728.496 198.12 738.615 196.135 750.331 196.135C762.145 196.135 772.264 198.12 780.689 202.091C789.21 205.964 795.746 211.532 800.297 218.794C804.945 226.057 807.269 234.82 807.269 245.084C807.269 255.155 804.945 263.822 800.297 271.084C795.746 278.347 789.21 283.963 780.689 287.933C772.264 291.806 762.145 293.743 750.331 293.743ZM750.331 278.201C757.884 278.201 764.517 276.991 770.231 274.57C776.041 272.149 780.592 268.518 783.884 263.676C787.176 258.738 788.823 252.541 788.823 245.084C788.823 237.628 787.176 231.431 783.884 226.492C780.592 221.554 776.041 217.874 770.231 215.454C764.517 212.936 757.884 211.677 750.331 211.677C742.972 211.677 736.339 212.936 730.432 215.454C724.622 217.874 720.023 221.554 716.634 226.492C713.341 231.431 711.695 237.628 711.695 245.084C711.695 252.541 713.341 258.738 716.634 263.676C720.023 268.518 724.622 272.149 730.432 274.57C736.339 276.991 742.972 278.201 750.331 278.201ZM912.818 273.844L907.298 276.023V197.878H925.164V292H907.298L834.093 216.616L839.612 214.437V292H821.892V197.878H839.612L912.818 273.844Z" fill="url(#paint25_radial_32_804)"/>
<path d="M521.986 368.627H553.215C553.699 371.242 555.442 373.517 558.444 375.454C561.542 377.391 565.609 378.892 570.645 379.957C575.68 380.925 581.49 381.409 588.075 381.409C594.369 381.409 599.404 381.07 603.181 380.392C606.957 379.715 609.668 378.649 611.315 377.197C612.961 375.744 613.784 373.856 613.784 371.532C613.784 369.402 612.573 367.756 610.153 366.594C607.732 365.432 603.568 364.56 597.661 363.979C591.754 363.301 583.62 362.769 573.259 362.382C565.416 361.994 558.444 361.268 552.343 360.203C546.34 359.041 541.256 357.443 537.092 355.41C532.928 353.279 529.781 350.665 527.651 347.566C525.617 344.371 524.601 340.643 524.601 336.382C524.601 329.797 526.682 324.229 530.846 319.678C535.107 315.127 541.45 311.689 549.874 309.365C558.395 306.945 568.95 305.734 581.538 305.734C600.13 305.734 614.365 308.833 624.242 315.03C634.119 321.228 639.009 329.942 638.912 341.175H609.281C608.797 336.914 606.037 333.767 601.002 331.734C595.966 329.7 589.091 328.684 580.376 328.684C571.952 328.684 565.464 329.41 560.913 330.862C556.362 332.315 554.086 334.784 554.086 338.27C554.086 339.819 554.667 341.127 555.829 342.192C557.088 343.257 559.17 344.177 562.075 344.952C564.98 345.629 568.998 346.21 574.131 346.695C579.36 347.082 585.944 347.469 593.885 347.857C602.212 348.244 609.426 349.019 615.527 350.181C621.627 351.246 626.663 352.795 630.633 354.829C634.603 356.862 637.556 359.477 639.493 362.672C641.43 365.868 642.398 369.692 642.398 374.147C642.398 380.731 640.413 386.299 636.443 390.85C632.569 395.305 626.42 398.645 617.996 400.873C609.572 403.1 598.581 404.213 585.024 404.213C576.697 404.213 569.192 403.584 562.511 402.325C555.829 401.163 549.922 399.469 544.79 397.241C539.755 394.917 535.494 392.255 532.008 389.253C528.619 386.154 526.053 382.862 524.31 379.376C522.664 375.89 521.889 372.307 521.986 368.627ZM679.625 343.209H770.261V366.013H679.625V343.209ZM766.629 308.349H795.679V401.744H766.629V308.349ZM654.497 308.349H683.692V401.744H654.497V308.349ZM815.021 308.349H844.071V401.744H815.021V308.349ZM987.851 377.197L977.538 382.716V308.349H1006.59V401.744H977.538L882.109 333.913L892.567 328.248V401.744H863.372V308.349H892.567L987.851 377.197ZM1052.61 362.527V378.94H1147.02V401.744H1023.41V308.349H1146.88V331.153H1052.61V347.711H1129.74V362.527H1052.61Z" fill="url(#paint26_radial_32_804)"/>
<defs>
<radialGradient id="paint0_radial_32_804" cx="0" cy="0" r="1" gradientUnits="userSpaceOnUse" gradientTransform="translate(265.884 421.335) rotate(90) scale(305.355 305.355)">
<stop offset="0.01" stop-color="#5D0AF5"/>
<stop offset="1" stop-color="#2F81FD"/>
</radialGradient>
<radialGradient id="paint1_radial_32_804" cx="0" cy="0" r="1" gradientUnits="userSpaceOnUse" gradientTransform="translate(364.674 336.932) rotate(90) scale(286.03 286.03)">
<stop offset="0.01" stop-color="#9ED5B9"/>
<stop offset="1" stop-color="#7253CA"/>
</radialGradient>
<radialGradient id="paint2_radial_32_804" cx="0" cy="0" r="1" gradientUnits="userSpaceOnUse" gradientTransform="translate(364.674 336.932) rotate(90) scale(286.03 286.03)">
<stop offset="0.01" stop-color="#9ED5B9"/>
<stop offset="1" stop-color="#7253CA"/>
</radialGradient>
<radialGradient id="paint3_radial_32_804" cx="0" cy="0" r="1" gradientUnits="userSpaceOnUse" gradientTransform="translate(319.994 255.16) rotate(90) scale(256.547 256.547)">
<stop offset="0.01" stop-color="#9ED5B9"/>
<stop offset="1" stop-color="#016496"/>
</radialGradient>
<radialGradient id="paint4_radial_32_804" cx="0" cy="0" r="1" gradientUnits="userSpaceOnUse" gradientTransform="translate(606.309 256.354) rotate(90) scale(76.8952 76.8952)">
<stop offset="0.01" stop-color="#9ED5B9"/>
<stop offset="1" stop-color="#016496"/>
</radialGradient>
<radialGradient id="paint5_radial_32_804" cx="0" cy="0" r="1" gradientUnits="userSpaceOnUse" gradientTransform="translate(408.504 595.259) rotate(90) scale(389.98 389.98)">
<stop offset="0.01" stop-color="#0797FF"/>
<stop offset="1" stop-color="#894EF6"/>
</radialGradient>
<radialGradient id="paint6_radial_32_804" cx="0" cy="0" r="1" gradientUnits="userSpaceOnUse" gradientTransform="translate(368.398 308.015) rotate(90) scale(408.759 408.759)">
<stop offset="0.01" stop-color="#9ED5B9"/>
<stop offset="1" stop-color="#2F81FD"/>
</radialGradient>
<radialGradient id="paint7_radial_32_804" cx="0" cy="0" r="1" gradientUnits="userSpaceOnUse" gradientTransform="translate(221.999 419.142) rotate(55.974) scale(232.359 263.342)">
<stop offset="0.01" stop-color="#0797FF"/>
<stop offset="1" stop-color="#894EF6"/>
</radialGradient>
<linearGradient id="paint8_linear_32_804" x1="296.865" y1="245.58" x2="396.406" y2="245.58" gradientUnits="userSpaceOnUse">
<stop offset="0.01" stop-color="#0797FF"/>
<stop offset="0.744903" stop-color="#894EF6"/>
</linearGradient>
<linearGradient id="paint9_linear_32_804" x1="298.074" y1="132.749" x2="428.242" y2="132.749" gradientUnits="userSpaceOnUse">
<stop offset="0.01" stop-color="#0797FF"/>
<stop offset="0.744903" stop-color="#894EF6"/>
</linearGradient>
<linearGradient id="paint10_linear_32_804" x1="389.898" y1="84.0023" x2="454.982" y2="84.0023" gradientUnits="userSpaceOnUse">
<stop offset="0.01" stop-color="#0797FF"/>
<stop offset="0.744903" stop-color="#894EF6"/>
</linearGradient>
<linearGradient id="paint11_linear_32_804" x1="279.039" y1="98.2916" x2="328.809" y2="98.2916" gradientUnits="userSpaceOnUse">
<stop offset="0.01" stop-color="#0797FF"/>
<stop offset="0.744903" stop-color="#894EF6"/>
</linearGradient>
<radialGradient id="paint12_radial_32_804" cx="0" cy="0" r="1" gradientUnits="userSpaceOnUse" gradientTransform="translate(467.548 390.454) scale(306.39 394.677)">
<stop offset="0.01" stop-color="#0797FF"/>
<stop offset="1" stop-color="#894EF6"/>
</radialGradient>
<linearGradient id="paint13_linear_32_804" x1="43.4966" y1="339.765" x2="162.49" y2="357.648" gradientUnits="userSpaceOnUse">
<stop stop-color="#4350FA"/>
<stop offset="1" stop-color="#5A00FF" stop-opacity="0"/>
</linearGradient>
<radialGradient id="paint14_radial_32_804" cx="0" cy="0" r="1" gradientUnits="userSpaceOnUse" gradientTransform="translate(274.792 228.021) rotate(165.28) scale(133.84 138.43)">
<stop stop-color="#4EF6EC"/>
<stop offset="1" stop-color="#0797FF"/>
</radialGradient>
<radialGradient id="paint15_radial_32_804" cx="0" cy="0" r="1" gradientUnits="userSpaceOnUse" gradientTransform="translate(375.957 487.331) rotate(-33.9765) scale(59.5016 71.931)">
<stop stop-color="#2120AD"/>
<stop offset="1" stop-color="#4B4AFA" stop-opacity="0"/>
</radialGradient>
<radialGradient id="paint16_radial_32_804" cx="0" cy="0" r="1" gradientUnits="userSpaceOnUse" gradientTransform="translate(392.457 551.109) scale(104.424 196.43)">
<stop offset="0.01" stop-color="#0797FF"/>
<stop offset="1" stop-color="#894EF6"/>
</radialGradient>
<linearGradient id="paint17_linear_32_804" x1="292.334" y1="458.235" x2="422.627" y2="631.822" gradientUnits="userSpaceOnUse">
<stop stop-color="#6265F9"/>
<stop offset="1" stop-color="#5A00FF" stop-opacity="0"/>
</linearGradient>
<radialGradient id="paint18_radial_32_804" cx="0" cy="0" r="1" gradientUnits="userSpaceOnUse" gradientTransform="translate(395.758 453.454) rotate(174.489) scale(110.688 44.5351)">
<stop stop-color="#4EF6EC"/>
<stop offset="1" stop-color="#0797FF"/>
</radialGradient>
<radialGradient id="paint19_radial_32_804" cx="0" cy="0" r="1" gradientUnits="userSpaceOnUse" gradientTransform="translate(77.364 24.8202) scale(54.05 42.5073)">
<stop offset="0.01" stop-color="#0797FF"/>
<stop offset="1" stop-color="#894EF6"/>
</radialGradient>
<linearGradient id="paint20_linear_32_804" x1="2.55734" y1="19.3609" x2="22.7966" y2="24.3432" gradientUnits="userSpaceOnUse">
<stop stop-color="#4350FA"/>
<stop offset="1" stop-color="#5A00FF" stop-opacity="0"/>
</linearGradient>
<radialGradient id="paint21_radial_32_804" cx="0" cy="0" r="1" gradientUnits="userSpaceOnUse" gradientTransform="translate(77.364 24.8202) rotate(168.682) scale(78.8983 63.9002)">
<stop stop-color="#4EF6EC"/>
<stop offset="1" stop-color="#0797FF"/>
</radialGradient>
<linearGradient id="paint22_linear_32_804" x1="23.2866" y1="295.609" x2="422.323" y2="613.718" gradientUnits="userSpaceOnUse">
<stop offset="0.01" stop-color="#C2A4FF"/>
<stop offset="1" stop-color="#894EF6"/>
</linearGradient>
<radialGradient id="paint23_radial_32_804" cx="0" cy="0" r="1" gradientUnits="userSpaceOnUse" gradientTransform="translate(489.763 518.53) rotate(150.303) scale(174.065 315.265)">
<stop stop-color="#4EF6EC"/>
<stop offset="1" stop-color="#0797FF"/>
</radialGradient>
<linearGradient id="paint24_linear_32_804" x1="176.174" y1="140.776" x2="120.046" y2="283.126" gradientUnits="userSpaceOnUse">
<stop offset="0.01" stop-color="#0797FF"/>
<stop offset="1" stop-color="#894EF6"/>
</linearGradient>
<radialGradient id="paint25_radial_32_804" cx="0" cy="0" r="1" gradientUnits="userSpaceOnUse" gradientTransform="translate(900.683 230.946) scale(341.416 124.928)">
<stop offset="0.01" stop-color="#0797FF"/>
<stop offset="1" stop-color="#894EF6"/>
</radialGradient>
<radialGradient id="paint26_radial_32_804" cx="0" cy="0" r="1" gradientUnits="userSpaceOnUse" gradientTransform="translate(1111.7 340.69) scale(415.552 124.928)">
<stop offset="0.01" stop-color="#0797FF"/>
<stop offset="1" stop-color="#894EF6"/>
</radialGradient>
</defs>
</svg>
