<?xml version="1.0" standalone="no"?>
<!DOCTYPE svg PUBLIC "-//W3C//DTD SVG 20010904//EN"
 "http://www.w3.org/TR/2001/REC-SVG-20010904/DTD/svg10.dtd">
<svg version="1.0" xmlns="http://www.w3.org/2000/svg"
 width="158.000000pt" height="158.000000pt" viewBox="0 0 158.000000 158.000000"
 preserveAspectRatio="xMidYMid meet">
<metadata>
Created by potrace 1.14, written by Peter Selinger 2001-2017
</metadata>
<g transform="translate(0.000000,158.000000) scale(0.100000,-0.100000)"
fill="#000000" stroke="none">
<path d="M0 790 l0 -790 790 0 790 0 0 790 0 790 -790 0 -790 0 0 -790z m675
520 c8 -13 -10 -41 -59 -92 -35 -39 -66 -49 -66 -24 0 19 -26 67 -42 78 -10 6
-9 11 7 21 37 22 149 34 160 17z m-294 -175 c-92 -97 -132 -219 -113 -344 46
-314 382 -464 646 -290 59 39 108 99 143 175 25 52 28 71 28 159 0 55 -4 118
-8 140 l-8 40 110 63 c61 34 115 62 121 62 5 0 27 -9 47 -20 21 -11 33 -20 26
-20 -6 0 -23 6 -38 14 -15 8 -35 12 -44 8 -20 -7 -178 -119 -185 -130 -3 -5 1
-30 9 -57 30 -98 14 -238 -37 -339 -29 -56 -112 -141 -173 -176 -182 -104
-418 -66 -560 92 -26 29 -53 65 -62 82 -98 189 -58 422 95 556 63 56 64 50 3
-15z m73 -202 c4 -12 2 -24 -4 -28 -19 -12 -11 -44 13 -50 12 -3 33 -24 46
-47 35 -62 107 -134 173 -175 33 -20 58 -43 58 -52 0 -39 41 -53 71 -25 15 13
27 15 66 7 l48 -9 -40 -26 c-103 -68 -257 -78 -368 -23 -63 31 -144 110 -175
171 -66 130 -45 301 51 410 l42 48 6 -90 c3 -49 9 -99 13 -111z m157 174 c61
-46 36 -137 -38 -137 -44 0 -73 30 -73 74 0 57 68 96 111 63z m129 -2 c0 -8
-7 -15 -15 -15 -16 0 -20 12 -8 23 11 12 23 8 23 -8z m125 -105 c9 -27 -1 -40
-30 -40 -29 0 -39 13 -30 40 4 13 15 20 30 20 15 0 26 -7 30 -20z m-135 -35
c0 -8 -7 -15 -15 -15 -8 0 -15 7 -15 15 0 8 7 15 15 15 8 0 15 -7 15 -15z
m-240 -86 c0 -23 -28 -26 -37 -3 -6 16 15 37 29 28 4 -3 8 -14 8 -25z m321 -9
c22 -12 26 -59 7 -78 -19 -19 -55 -14 -72 10 -20 29 -20 34 4 58 23 23 33 24
61 10z m179 -61 c0 -5 -7 -9 -15 -9 -15 0 -20 12 -9 23 8 8 24 -1 24 -14z
m-370 -37 c0 -13 -12 -22 -22 -16 -10 6 -1 24 13 24 5 0 9 -4 9 -8z m184 -175
c16 -25 -16 -56 -38 -37 -19 15 -20 32 -4 48 15 15 28 11 42 -11z"/>
<path d="M607 1293 c-4 -3 -7 -12 -7 -20 0 -15 26 -18 34 -4 7 11 -18 33 -27
24z"/>
<path d="M515 680 c-4 -7 -3 -16 3 -22 14 -14 45 -2 40 15 -6 16 -34 21 -43 7z"/>
</g>
</svg>
