<svg width="1422" height="710" fill="none" xmlns="http://www.w3.org/2000/svg">
  <mask id="a" style="mask-type:alpha" maskUnits="userSpaceOnUse" x="-6" y="0" width="679" height="679">
    <path d="M356.749 518.562c135.477 36.301 274.731-44.097 311.032-179.574a258.117 258.117 0 0 0 4.227-18.457c1.956 35.028-1.535 70.96-11.11 106.695-48.45 180.816-234.307 288.12-415.123 239.671C64.959 618.447-42.345 432.59 6.105 251.774 54.553 70.958 240.41-36.346 421.226 12.104a343.39 343.39 0 0 1 27.128 8.483C326.416 7.947 209.917 85.334 177.174 207.53c-36.301 135.478 44.097 274.731 179.575 311.032Z" fill="#D9D9D9"/>
  </mask>
  <g mask="url(#a)">
    <path d="M636.215 318.659a316.604 316.604 0 0 0-48.828-169.392 221.28 221.28 0 0 1-68.81 294.495 221.279 221.279 0 0 1-298.394-49.22A221.274 221.274 0 0 1 402.607 38.591a221.276 221.276 0 0 1 149.267 64.438A318.065 318.065 0 0 0 16.178 218.881a318.063 318.063 0 1 0 620.037 99.778Z" fill="url(#b)"/>
    <path d="M636.215 318.659a316.604 316.604 0 0 0-48.828-169.392 221.277 221.277 0 1 1-35.513-46.238 319.911 319.911 0 0 0-64.957-53.948 308.593 308.593 0 0 0-189.729 586.953c6.901.445 13.882.708 20.904.708a318.061 318.061 0 0 0 121.737-24.201 318.085 318.085 0 0 0 196.386-293.882Z" fill="url(#c)"/>
    <path d="M636.215 318.659a316.604 316.604 0 0 0-48.828-169.392 221.277 221.277 0 1 1-35.513-46.238 319.911 319.911 0 0 0-64.957-53.948 308.593 308.593 0 0 0-189.729 586.953c6.901.445 13.882.708 20.904.708a318.061 318.061 0 0 0 121.737-24.201 318.085 318.085 0 0 0 196.386-293.882Z" fill="url(#d)"/>
    <path d="M578.523 383.413a220.975 220.975 0 0 1-350.796 19.525 220.972 220.972 0 0 1 324.146-299.909A317.988 317.988 0 0 0 327.673.722 318.001 318.001 0 0 0 97.706 89.309a281.982 281.982 0 0 0 480.817 294.104Z" fill="url(#e)"/>
    <path d="M590.626 363.44a280.385 280.385 0 0 0 34.623-127.747 316.399 316.399 0 0 0-37.861-86.466 221.173 221.173 0 0 1 3.238 214.173v.04Z" fill="url(#f)"/>
    <path d="M636.215 318.659a316.604 316.604 0 0 0-48.828-169.392 221.277 221.277 0 1 1-35.513-46.238 319.911 319.911 0 0 0-64.957-53.948 308.593 308.593 0 0 0-189.729 586.953c6.901.445 13.882.708 20.904.708a318.061 318.061 0 0 0 121.737-24.201 318.085 318.085 0 0 0 196.386-293.882Z" fill="url(#g)"/>
    <path d="M578.524 383.413a220.965 220.965 0 0 1-237.672 89.984 220.97 220.97 0 0 1-137.171-323.455A220.978 220.978 0 0 1 433.584 41.637c44.809 7.803 86.155 14.988 118.327 47.138A318 318 0 0 0 450.124 15.02C411.626-2.547 369.998-8.302 327.701-9.58c-42.298-1.277-84.453 16.201-123.941 31.413A317.999 317.999 0 0 0 97.707 89.309a281.982 281.982 0 0 0 480.817 294.104Z" fill="url(#h)"/>
    <path d="M395.736 38.335a220.956 220.956 0 0 0-206.045 135.9A220.956 220.956 0 0 0 395.736 480.22h8.52c1.497 0 3.015-.122 4.512-.203.749 0 1.498 0 2.246-.141 1.498-.101 2.975-.223 4.452-.365.668 0 1.356.001 2.024-.161 2.023-.203 4.047-.425 6.07-.668h.344c2.024-.263 4.209-.567 6.294-.911.607 0 1.214-.202 1.841-.303 1.477-.243 2.975-.486 4.452-.769.708-.142 1.396-.263 2.023-.405 1.457-.283 2.894-.587 4.331-.89l1.902-.425a176.85 176.85 0 0 0 5.666-1.356c.142 0 .263 0 .405-.101a224.353 224.353 0 0 0 6.07-1.66 44.837 44.837 0 0 0 1.579-.465 281.75 281.75 0 0 0 4.452-1.356l1.881-.607 4.27-1.457 1.68-.607a294.226 294.226 0 0 0 5.463-2.023l.324-.122c2.024-.769 3.906-1.578 5.828-2.388l1.234-.546a125.055 125.055 0 0 0 4.472-2.024c.526-.242 1.073-.485 1.599-.748a272.402 272.402 0 0 0 4.209-2.024l1.416-.708a256.95 256.95 0 0 0 5.262-2.732l.182-.121c1.882-1.012 3.743-2.024 5.585-3.117l.83-.485c1.497-.891 2.994-1.781 4.492-2.712l1.295-.789a125.94 125.94 0 0 0 4.047-2.651l1.153-.769c1.7-1.133 3.38-2.266 5.039-3.44a214.84 214.84 0 0 0 5.221-3.824l.465-.344a185.709 185.709 0 0 0 4.432-3.461l1.012-.809c1.335-1.073 2.651-2.165 4.047-3.258l.91-.769a220.85 220.85 0 0 0 9.43-8.539l.122-.122a169.138 169.138 0 0 0 4.29-4.229l.748-.789c1.255-1.255 2.469-2.55 3.683-3.845l.708-.769a226.796 226.796 0 0 0 12.283-14.509l.587-.789a219.81 219.81 0 0 0 3.258-4.351c.202-.263.405-.526.587-.809a175.925 175.925 0 0 0 3.561-5.079 282 282 0 0 1-387.542 81.545 282.012 282.012 0 0 1-97.606-106.84 321.13 321.13 0 0 1-.243-12.505 308.506 308.506 0 0 1 90.276-218.308 308.51 308.51 0 0 1 218.236-90.447l-5.909 1.214Z" fill="url(#i)"/>
  </g>
  <circle cx="339.524" cy="249.829" r="26.306" fill="url(#j)"/>
  <circle cx="353.858" cy="138.306" r="34.401" fill="url(#k)"/>
  <circle cx="417.79" cy="86.781" r="17.2" fill="url(#l)"/>
  <circle cx="300.368" cy="100.416" r="13.153" fill="url(#m)"/>
  <path d="M275.302 291.207c5.837-12.038 9.11-25.55 9.11-39.828 0-50.467-40.898-91.379-91.348-91.379-47.241 0-86.106 35.872-90.86 81.872-23.107 9.66-63.588 35.482-72.335 76.108-9.386 43.594 59.426 76.413 101.405 78.804 6.844 20.47 32.191 43.566 69.172 63.075 15.048 7.939 28.547 13.345 41.037 18.347 18.203 7.289 34.264 13.72 49.86 25.886 7.415 5.784 11.733 33.534 11.733 44.432-.976 3.726-2.09 7.275-3.318 11.184-2.428 7.732-5.298 16.872-8.415 31.572-4.693 22.132-1.955 53.933 0 67.067l-7.542 21.797c4.022 22.132 68.72 31.123 99.728 29.342 5.46-6.245 4.96-15.665 4.47-24.91-.14-2.635-.279-5.256-.279-7.785 0-11.402-23.466-22.077-35.199-25.989 6.035-10.06 24.863-70.141 33.523-98.924-2.235-.28-.168-.168 25.98 2.515 26.147 2.682 56.608-1.124 75.603-7.831 18.996-6.706 10.717-24.026 10.717-24.026-6.034-12.073-28.215-17.326-38.551-18.444 12.571-37.725 10.895-85.511 0-103.954-8.716-14.755-71.793-20.68-102.243-20.121-1.118-3.353-6.369-13.749-18.437-28.503-12.069-14.755-41.903-37.446-55.312-46.947l-8.499-13.36Z" fill="url(#n)"/>
  <path d="M275.302 291.207c5.837-12.038 9.11-25.55 9.11-39.828 0-50.467-40.898-91.379-91.348-91.379-47.241 0-86.106 35.872-90.86 81.872-23.107 9.66-63.588 35.482-72.335 76.108-9.386 43.594 59.426 76.413 101.405 78.804 6.844 20.47 32.191 43.566 69.172 63.075 15.048 7.939 28.547 13.345 41.037 18.347 18.203 7.289 34.264 13.72 49.86 25.886 7.415 5.784 11.733 33.534 11.733 44.432-.976 3.726-2.09 7.275-3.318 11.184-2.428 7.732-5.298 16.872-8.415 31.572-4.693 22.132-1.955 53.933 0 67.067l-7.542 21.797c4.022 22.132 68.72 31.123 99.728 29.342 5.46-6.245 4.96-15.665 4.47-24.91-.14-2.635-.279-5.256-.279-7.785 0-11.402-23.466-22.077-35.199-25.989 6.035-10.06 24.863-70.141 33.523-98.924-2.235-.28-.168-.168 25.98 2.515 26.147 2.682 56.608-1.124 75.603-7.831 18.996-6.706 10.717-24.026 10.717-24.026-6.034-12.073-28.215-17.326-38.551-18.444 12.571-37.725 10.895-85.511 0-103.954-8.716-14.755-71.793-20.68-102.243-20.121-1.118-3.353-6.369-13.749-18.437-28.503-12.069-14.755-41.903-37.446-55.312-46.947l-8.499-13.36Z" fill="url(#o)"/>
  <path d="M240.666 173.509c-.738.635-1.454 1.312-2.212 2.026-3.854 3.636-8.751 8.254-22.657 13.472-18.787 7.048-49.578 10.819-62.624 7.883l-7.828 54.767c8.806 29.367 40.118 51.882 87.086 51.882 27.629 0 41.953-15.568 48.638-27.441a91.52 91.52 0 0 0 3.343-24.582c0-33.021-17.509-61.951-43.746-78.007Z" fill="url(#p)"/>
  <path d="M416.47 554.876c14.543-25.459 41.309-94.291 30.644-111.115-13.504-21.302-31.683-51.512-88.297-43.718-14.024 3.637-45.048 38.638-55.576 43.718 4.555-1.633 8.567-2.672 11.751-2.895 22.334-1.558 61.808 2.598 75.312 23.901 10.454 16.491-12.026 62.863-21.099 87.512 4.297-3.337 47.265 2.597 47.265 2.597Z" fill="url(#q)"/>
  <path d="M386.695 552.164c9.041-24.122 23.819-74.733 13.154-91.556-13.504-21.303-52.978-25.459-75.312-23.901-17.868 1.247-61.809 28.231-81.546 41.566 23.269 8.133 41.93 20.798 48.352 26.114 7.414 5.783 11.733 33.533 11.733 44.432-.976 3.725-2.09 7.275-3.318 11.184-2.428 7.731-5.298 16.872-8.415 31.571-4.693 22.132-1.956 53.934 0 67.067l-7.543 21.797c4.023 22.133 68.721 31.124 99.729 29.342 5.459-6.244 4.96-15.664 4.47-24.908v-.002c-.14-2.635-.279-5.256-.279-7.785 0-11.401-23.466-22.076-35.199-25.988 6.034-10.061 24.863-70.142 33.522-98.925-.894-.112-1.099-.161.652-.008Z" fill="url(#r)"/>
  <path d="M386.695 552.164c9.041-24.122 23.819-74.733 13.154-91.556-13.504-21.303-52.978-25.459-75.312-23.901-17.868 1.247-61.809 28.231-81.546 41.566 23.269 8.133 41.93 20.798 48.352 26.114 7.414 5.783 11.733 33.533 11.733 44.432-.976 3.725-2.09 7.275-3.318 11.184-2.428 7.731-5.298 16.872-8.415 31.571-4.693 22.132-1.956 53.934 0 67.067l-7.543 21.797c4.023 22.133 68.721 31.124 99.729 29.342 5.459-6.244 4.96-15.664 4.47-24.908v-.002c-.14-2.635-.279-5.256-.279-7.785 0-11.401-23.466-22.076-35.199-25.988 6.034-10.061 24.863-70.142 33.522-98.925-.894-.112-1.099-.161.652-.008Z" fill="url(#s)"/>
  <path d="M400.242 460.608c2.479 3.911 3.583 9.647 3.704 16.453-.574-4.423-1.723-8.189-3.587-11.036-14.677-22.412-57.579-26.786-81.853-25.146-7.673.519-19.772 5.265-32.924 11.683 15.436-8.389 30.551-15.241 39.347-15.855 22.334-1.558 61.809 2.598 75.313 23.901Z" fill="url(#t)"/>
  <rect width="83.113" height="59.204" rx="15" transform="rotate(-36.289 661.29 -146.455) skewX(-.019)" fill="url(#u)"/>
  <rect width="83.113" height="59.204" rx="15" transform="rotate(-36.289 661.29 -146.455) skewX(-.019)" fill="url(#v)"/>
  <rect width="83.113" height="59.204" rx="17" transform="rotate(-36.289 656.535 -148.013) skewX(-.019)" fill="url(#w)"/>
  <path d="M165.185 164.156c-29.679 12.824-51.211 40.94-54.671 74.422-23.106 9.66-63.587 35.482-72.334 76.108-9.387 43.593 59.425 76.413 101.404 78.804 6.844 20.47 32.191 43.566 69.172 63.075 15.048 7.939 28.547 13.345 41.037 18.346 18.204 7.289 34.264 13.721 49.86 25.887 7.415 5.784 11.733 33.533 11.733 44.432-.972 3.716-2.084 7.256-3.309 11.154l-.009.03-.003.012c-2.428 7.729-5.297 16.868-8.412 31.559-4.692 22.132-1.955 53.934 0 67.068l-7.542 21.797c3.767 20.726 60.747 29.928 93.437 29.55a16.044 16.044 0 0 1-2.019 2.909c-31.008 1.781-95.706-7.21-99.728-29.342l7.542-21.797c-1.956-13.134-4.693-44.935 0-67.067 3.114-14.692 5.983-23.831 8.412-31.559l.003-.012c1.227-3.91 2.342-7.459 3.318-11.185 0-10.898-4.318-38.648-11.733-44.432-15.596-12.166-31.657-18.597-49.86-25.886-12.49-5.002-25.989-10.408-41.037-18.347-36.981-19.509-62.328-42.605-69.173-63.075-41.978-2.391-110.79-35.21-101.404-78.804 8.747-40.626 49.228-66.448 72.335-76.108 3.775-36.533 29.066-66.678 62.981-77.539Z" fill="url(#x)"/>
  <path d="M359.158 380.323v.172c34.114 1.136 83.912 7.295 91.75 19.962 11.41 18.443 13.165 66.229 0 103.955 10.825 1.117 34.055 6.371 40.374 18.443 0 0 8.67 17.32-11.224 24.027-14.17 4.777-34.432 8.083-54.816 8.62 22.92.647 47.182-2.95 63.246-8.622 18.996-6.707 10.717-24.027 10.717-24.027-6.034-12.072-28.215-17.325-38.551-18.443 12.571-37.726 10.895-85.511 0-103.955-8.645-14.635-70.773-20.582-101.496-20.132Z" fill="url(#y)"/>
  <path d="M165.974 338.674c-27.139-15.842-45.376-45.282-45.376-78.982 0-50.467 40.899-91.379 91.349-91.379 9.432 0 18.53 1.43 27.09 4.085C225.533 164.516 209.826 160 193.064 160c-50.45 0-91.348 40.912-91.348 91.379 0 41.032 27.035 75.748 64.258 87.295Z" fill="url(#z)"/>
  <path d="M527.538 252.588h-11.23l70.53-115.251h24.035V265h-24.035v-94.171l5.516 1.576L535.418 265h-26.596l-57.133-92.201 5.713-1.576V265h-24.035V137.337h24.035l70.136 115.251Zm180.194 14.776c-15.892 0-29.617-2.627-41.175-7.88-11.558-5.385-20.489-13.003-26.794-22.854-6.173-9.85-9.259-21.605-9.259-35.264 0-13.923 3.086-25.809 9.259-35.659 6.305-9.851 15.236-17.403 26.794-22.657 11.558-5.385 25.283-8.077 41.175-8.077 16.023 0 29.749 2.692 41.175 8.077 11.558 5.254 20.424 12.806 26.597 22.657 6.304 9.85 9.456 21.736 9.456 35.659 0 13.659-3.152 25.414-9.456 35.264-6.173 9.851-15.039 17.469-26.597 22.854-11.426 5.253-25.152 7.88-41.175 7.88Zm0-21.08c10.244 0 19.241-1.642 26.99-4.925 7.881-3.284 14.054-8.209 18.519-14.776 4.466-6.698 6.699-15.104 6.699-25.217 0-10.114-2.233-18.519-6.699-25.218-4.465-6.698-10.638-11.689-18.519-14.973-7.749-3.414-16.746-5.122-26.99-5.122-9.982 0-18.979 1.708-26.991 5.122-7.88 3.284-14.119 8.275-18.716 14.973-4.465 6.699-6.698 15.104-6.698 25.218 0 10.113 2.233 18.519 6.698 25.217 4.597 6.567 10.836 11.492 18.716 14.776 8.012 3.283 17.009 4.925 26.991 4.925Zm169.167 21.08c-15.892 0-29.617-2.627-41.175-7.88-11.558-5.385-20.489-13.003-26.793-22.854-6.173-9.85-9.26-21.605-9.26-35.264 0-13.923 3.087-25.809 9.26-35.659 6.304-9.851 15.235-17.403 26.793-22.657 11.558-5.385 25.283-8.077 41.175-8.077 16.024 0 29.749 2.692 41.176 8.077 11.558 5.254 20.423 12.806 26.596 22.657 6.304 9.85 9.457 21.736 9.457 35.659 0 13.659-3.153 25.414-9.457 35.264-6.173 9.851-15.038 17.469-26.596 22.854-11.427 5.253-25.152 7.88-41.176 7.88Zm0-21.08c10.245 0 19.242-1.642 26.991-4.925 7.88-3.284 14.053-8.209 18.519-14.776 4.465-6.698 6.698-15.104 6.698-25.217 0-10.114-2.233-18.519-6.698-25.218-4.466-6.698-10.639-11.689-18.519-14.973-7.749-3.414-16.746-5.122-26.991-5.122-9.981 0-18.978 1.708-26.99 5.122-7.88 3.284-14.119 8.275-18.716 14.973-4.466 6.699-6.698 15.104-6.698 25.218 0 10.113 2.232 18.519 6.698 25.217 4.597 6.567 10.836 11.492 18.716 14.776 8.012 3.283 17.009 4.925 26.99 4.925Zm220.391-5.91-7.49 2.955V137.337h24.24V265h-24.24l-99.29-102.249 7.486-2.955V265h-24.035V137.337h24.035l99.294 103.037Z" fill="url(#A)"/>
  <path d="M567.181 368.934h42.357c.657 3.546 3.021 6.633 7.092 9.26 4.203 2.626 9.719 4.662 16.549 6.107 6.83 1.313 14.71 1.97 23.641 1.97 8.538 0 15.367-.46 20.49-1.379 5.122-.919 8.799-2.364 11.032-4.334 2.233-1.97 3.349-4.532 3.349-7.684 0-2.889-1.641-5.122-4.925-6.698-3.283-1.576-8.931-2.758-16.943-3.546-8.012-.92-19.044-1.642-33.098-2.167-10.638-.526-20.095-1.511-28.369-2.956-8.143-1.576-15.039-3.743-20.686-6.501-5.648-2.889-9.917-6.436-12.806-10.638-2.758-4.335-4.137-9.391-4.137-15.17 0-8.931 2.824-16.483 8.471-22.656 5.779-6.174 14.382-10.836 25.809-13.988 11.558-3.284 25.874-4.926 42.948-4.926 25.217 0 44.524 4.203 57.921 12.609 13.397 8.406 20.029 20.227 19.898 35.462h-40.19c-.657-5.779-4.4-10.047-11.23-12.806-6.829-2.758-16.155-4.137-27.975-4.137-11.427 0-20.227.985-26.4 2.955-6.173 1.97-9.259 5.32-9.259 10.048 0 2.101.788 3.874 2.364 5.319 1.707 1.445 4.531 2.693 8.471 3.743 3.941.92 9.391 1.708 16.352 2.364 7.093.526 16.024 1.051 26.794 1.577 11.295.525 21.08 1.576 29.354 3.152 8.275 1.444 15.105 3.546 20.49 6.304 5.384 2.758 9.39 6.304 12.017 10.639 2.627 4.334 3.94 9.522 3.94 15.564 0 8.931-2.692 16.483-8.077 22.656-5.254 6.041-13.594 10.573-25.02 13.593-11.427 3.021-26.334 4.532-44.722 4.532-11.295 0-21.474-.854-30.536-2.561-9.063-1.577-17.075-3.875-24.036-6.896-6.829-3.152-12.608-6.764-17.337-10.835-4.597-4.203-8.077-8.669-10.441-13.397-2.233-4.728-3.284-9.588-3.152-14.579Zm213.815-34.477H903.93v30.931H780.996v-30.931Zm118.009-47.282h39.402v126.678h-39.402V287.175Zm-152.092 0h39.599v126.678h-39.599V287.175Zm217.729 0h39.398v126.678h-39.398V287.175Zm234.418 93.383-13.99 7.486V287.175h39.41v126.678h-39.41l-129.43-92.004 14.18-7.684v99.688h-39.6V287.175h39.6l129.24 93.383Zm87.84-19.898v22.262h128.05v30.931H1247.3V287.175h167.46v30.93H1286.9v22.46h104.61v20.095H1286.9Z" fill="url(#B)"/>
  <defs>
    <radialGradient id="b" cx="0" cy="0" r="1" gradientUnits="userSpaceOnUse" gradientTransform="rotate(90 -77.726 343.61) scale(305.355)">
      <stop offset=".01" stop-color="#5D0AF5"/>
      <stop offset="1" stop-color="#2F81FD"/>
    </radialGradient>
    <radialGradient id="c" cx="0" cy="0" r="1" gradientUnits="userSpaceOnUse" gradientTransform="rotate(90 13.871 350.803) scale(286.03)">
      <stop offset=".01" stop-color="#9ED5B9"/>
      <stop offset="1" stop-color="#7253CA"/>
    </radialGradient>
    <radialGradient id="d" cx="0" cy="0" r="1" gradientUnits="userSpaceOnUse" gradientTransform="rotate(90 13.871 350.803) scale(286.03)">
      <stop offset=".01" stop-color="#9ED5B9"/>
      <stop offset="1" stop-color="#7253CA"/>
    </radialGradient>
    <radialGradient id="e" cx="0" cy="0" r="1" gradientUnits="userSpaceOnUse" gradientTransform="rotate(90 32.417 287.577) scale(256.547)">
      <stop offset=".01" stop-color="#9ED5B9"/>
      <stop offset="1" stop-color="#016496"/>
    </radialGradient>
    <radialGradient id="f" cx="0" cy="0" r="1" gradientUnits="userSpaceOnUse" gradientTransform="rotate(90 174.977 431.332) scale(76.8952)">
      <stop offset=".01" stop-color="#9ED5B9"/>
      <stop offset="1" stop-color="#016496"/>
    </radialGradient>
    <radialGradient id="g" cx="0" cy="0" r="1" gradientUnits="userSpaceOnUse" gradientTransform="rotate(90 -93.378 501.882) scale(389.98)">
      <stop offset=".01" stop-color="#0797FF"/>
      <stop offset="1" stop-color="#894EF6"/>
    </radialGradient>
    <radialGradient id="h" cx="0" cy="0" r="1" gradientUnits="userSpaceOnUse" gradientTransform="rotate(90 30.191 338.207) scale(408.759)">
      <stop offset=".01" stop-color="#9ED5B9"/>
      <stop offset="1" stop-color="#2F81FD"/>
    </radialGradient>
    <radialGradient id="i" cx="0" cy="0" r="1" gradientUnits="userSpaceOnUse" gradientTransform="matrix(130.0209 192.57536 -218.25357 147.35803 221.999 419.142)">
      <stop offset=".01" stop-color="#0797FF"/>
      <stop offset="1" stop-color="#894EF6"/>
    </radialGradient>
    <radialGradient id="n" cx="0" cy="0" r="1" gradientUnits="userSpaceOnUse" gradientTransform="matrix(306.39 0 0 394.677 467.548 390.454)">
      <stop offset=".01" stop-color="#0797FF"/>
      <stop offset="1" stop-color="#894EF6"/>
    </radialGradient>
    <radialGradient id="p" cx="0" cy="0" r="1" gradientUnits="userSpaceOnUse" gradientTransform="matrix(-129.44725 34.00815 -35.17445 -133.8866 274.792 228.021)">
      <stop stop-color="#4EF6EC"/>
      <stop offset="1" stop-color="#0797FF"/>
    </radialGradient>
    <radialGradient id="q" cx="0" cy="0" r="1" gradientUnits="userSpaceOnUse" gradientTransform="rotate(-33.977 985.557 -371.636) scale(59.5016 71.931)">
      <stop stop-color="#2120AD"/>
      <stop offset="1" stop-color="#4B4AFA" stop-opacity="0"/>
    </radialGradient>
    <radialGradient id="r" cx="0" cy="0" r="1" gradientUnits="userSpaceOnUse" gradientTransform="matrix(104.424 0 0 196.43 392.457 551.109)">
      <stop offset=".01" stop-color="#0797FF"/>
      <stop offset="1" stop-color="#894EF6"/>
    </radialGradient>
    <radialGradient id="t" cx="0" cy="0" r="1" gradientUnits="userSpaceOnUse" gradientTransform="matrix(-110.17638 10.63013 -4.27701 -44.32925 395.758 453.454)">
      <stop stop-color="#4EF6EC"/>
      <stop offset="1" stop-color="#0797FF"/>
    </radialGradient>
    <radialGradient id="u" cx="0" cy="0" r="1" gradientUnits="userSpaceOnUse" gradientTransform="matrix(54.05 0 0 42.5073 77.364 24.82)">
      <stop offset=".01" stop-color="#0797FF"/>
      <stop offset="1" stop-color="#894EF6"/>
    </radialGradient>
    <radialGradient id="w" cx="0" cy="0" r="1" gradientUnits="userSpaceOnUse" gradientTransform="rotate(168.682 37.452 16.243) scale(78.8983 63.9002)">
      <stop stop-color="#4EF6EC"/>
      <stop offset="1" stop-color="#0797FF"/>
    </radialGradient>
    <radialGradient id="y" cx="0" cy="0" r="1" gradientUnits="userSpaceOnUse" gradientTransform="rotate(150.303 176.146 324.187) scale(174.065 315.265)">
      <stop stop-color="#4EF6EC"/>
      <stop offset="1" stop-color="#0797FF"/>
    </radialGradient>
    <radialGradient id="A" cx="0" cy="0" r="1" gradientUnits="userSpaceOnUse" gradientTransform="matrix(463.025 0 0 169.443 1080.75 181.939)">
      <stop offset=".01" stop-color="#0797FF"/>
      <stop offset="1" stop-color="#894EF6"/>
    </radialGradient>
    <radialGradient id="B" cx="0" cy="0" r="1" gradientUnits="userSpaceOnUse" gradientTransform="matrix(563.824 0 0 169.443 1367.31 330.791)">
      <stop offset=".01" stop-color="#0797FF"/>
      <stop offset="1" stop-color="#894EF6"/>
    </radialGradient>
    <linearGradient id="j" x1="296.865" y1="245.58" x2="396.406" y2="245.58" gradientUnits="userSpaceOnUse">
      <stop offset=".01" stop-color="#0797FF"/>
      <stop offset=".745" stop-color="#894EF6"/>
    </linearGradient>
    <linearGradient id="k" x1="298.074" y1="132.749" x2="428.242" y2="132.749" gradientUnits="userSpaceOnUse">
      <stop offset=".01" stop-color="#0797FF"/>
      <stop offset=".745" stop-color="#894EF6"/>
    </linearGradient>
    <linearGradient id="l" x1="389.898" y1="84.002" x2="454.982" y2="84.002" gradientUnits="userSpaceOnUse">
      <stop offset=".01" stop-color="#0797FF"/>
      <stop offset=".745" stop-color="#894EF6"/>
    </linearGradient>
    <linearGradient id="m" x1="279.039" y1="98.292" x2="328.809" y2="98.292" gradientUnits="userSpaceOnUse">
      <stop offset=".01" stop-color="#0797FF"/>
      <stop offset=".745" stop-color="#894EF6"/>
    </linearGradient>
    <linearGradient id="o" x1="43.497" y1="339.765" x2="162.49" y2="357.648" gradientUnits="userSpaceOnUse">
      <stop stop-color="#4350FA"/>
      <stop offset="1" stop-color="#5A00FF" stop-opacity="0"/>
    </linearGradient>
    <linearGradient id="s" x1="292.334" y1="458.235" x2="422.627" y2="631.822" gradientUnits="userSpaceOnUse">
      <stop stop-color="#6265F9"/>
      <stop offset="1" stop-color="#5A00FF" stop-opacity="0"/>
    </linearGradient>
    <linearGradient id="v" x1="2.557" y1="19.361" x2="22.797" y2="24.343" gradientUnits="userSpaceOnUse">
      <stop stop-color="#4350FA"/>
      <stop offset="1" stop-color="#5A00FF" stop-opacity="0"/>
    </linearGradient>
    <linearGradient id="x" x1="23.287" y1="295.609" x2="422.323" y2="613.718" gradientUnits="userSpaceOnUse">
      <stop offset=".01" stop-color="#C2A4FF"/>
      <stop offset="1" stop-color="#894EF6"/>
    </linearGradient>
    <linearGradient id="z" x1="176.174" y1="140.776" x2="120.046" y2="283.126" gradientUnits="userSpaceOnUse">
      <stop offset=".01" stop-color="#0797FF"/>
      <stop offset="1" stop-color="#894EF6"/>
    </linearGradient>
  </defs>
</svg>
