<svg width="1156" height="710" fill="none" xmlns="http://www.w3.org/2000/svg">
  <mask id="a" style="mask-type:alpha" maskUnits="userSpaceOnUse" x="-6" y="0" width="679" height="679">
    <path d="M356.749 518.562c135.477 36.301 274.731-44.097 311.032-179.574a258.117 258.117 0 0 0 4.227-18.457c1.956 35.028-1.535 70.96-11.11 106.695-48.45 180.816-234.307 288.12-415.123 239.671C64.959 618.447-42.345 432.59 6.105 251.774 54.553 70.958 240.41-36.346 421.226 12.104a343.39 343.39 0 0 1 27.128 8.483C326.416 7.947 209.917 85.334 177.174 207.53c-36.301 135.478 44.097 274.731 179.575 311.032Z" fill="#D9D9D9"/>
  </mask>
  <g mask="url(#a)">
    <path d="M636.215 318.659a316.604 316.604 0 0 0-48.828-169.392 221.28 221.28 0 0 1-68.81 294.495 221.279 221.279 0 0 1-298.394-49.22A221.274 221.274 0 0 1 402.607 38.591a221.276 221.276 0 0 1 149.267 64.438A318.065 318.065 0 0 0 16.178 218.881a318.063 318.063 0 1 0 620.037 99.778Z" fill="url(#b)"/>
    <path d="M636.215 318.659a316.604 316.604 0 0 0-48.828-169.392 221.277 221.277 0 1 1-35.513-46.238 319.911 319.911 0 0 0-64.957-53.948 308.593 308.593 0 0 0-189.729 586.953c6.901.445 13.882.708 20.904.708a318.061 318.061 0 0 0 121.737-24.201 318.085 318.085 0 0 0 196.386-293.882Z" fill="url(#c)"/>
    <path d="M636.215 318.659a316.604 316.604 0 0 0-48.828-169.392 221.277 221.277 0 1 1-35.513-46.238 319.911 319.911 0 0 0-64.957-53.948 308.593 308.593 0 0 0-189.729 586.953c6.901.445 13.882.708 20.904.708a318.061 318.061 0 0 0 121.737-24.201 318.085 318.085 0 0 0 196.386-293.882Z" fill="url(#d)"/>
    <path d="M578.523 383.413a220.975 220.975 0 0 1-350.796 19.525 220.972 220.972 0 0 1 324.146-299.909A317.988 317.988 0 0 0 327.673.722 318.001 318.001 0 0 0 97.706 89.309a281.982 281.982 0 0 0 480.817 294.104Z" fill="url(#e)"/>
    <path d="M590.626 363.44a280.385 280.385 0 0 0 34.623-127.747 316.399 316.399 0 0 0-37.861-86.466 221.173 221.173 0 0 1 3.238 214.173v.04Z" fill="url(#f)"/>
    <path d="M636.215 318.659a316.604 316.604 0 0 0-48.828-169.392 221.277 221.277 0 1 1-35.513-46.238 319.911 319.911 0 0 0-64.957-53.948 308.593 308.593 0 0 0-189.729 586.953c6.901.445 13.882.708 20.904.708a318.061 318.061 0 0 0 121.737-24.201 318.085 318.085 0 0 0 196.386-293.882Z" fill="url(#g)"/>
    <path d="M578.524 383.413a220.965 220.965 0 0 1-237.672 89.984 220.97 220.97 0 0 1-137.171-323.455A220.978 220.978 0 0 1 433.584 41.637c44.809 7.803 86.155 14.988 118.327 47.138A318 318 0 0 0 450.124 15.02C411.626-2.547 369.998-8.302 327.701-9.58c-42.298-1.277-84.453 16.201-123.941 31.413A317.999 317.999 0 0 0 97.707 89.309a281.982 281.982 0 0 0 480.817 294.104Z" fill="url(#h)"/>
    <path d="M395.736 38.335a220.956 220.956 0 0 0-206.045 135.9A220.956 220.956 0 0 0 395.736 480.22h8.52c1.497 0 3.015-.122 4.512-.203.749 0 1.498 0 2.246-.141 1.498-.101 2.975-.223 4.452-.365.668 0 1.356.001 2.024-.161 2.023-.203 4.047-.425 6.07-.668h.344c2.024-.263 4.209-.567 6.294-.911.607 0 1.214-.202 1.841-.303 1.477-.243 2.975-.486 4.452-.769.708-.142 1.396-.263 2.023-.405 1.457-.283 2.894-.587 4.331-.89l1.902-.425a176.85 176.85 0 0 0 5.666-1.356c.142 0 .263 0 .405-.101a224.353 224.353 0 0 0 6.07-1.66 44.837 44.837 0 0 0 1.579-.465 281.75 281.75 0 0 0 4.452-1.356l1.881-.607 4.27-1.457 1.68-.607a294.226 294.226 0 0 0 5.463-2.023l.324-.122c2.024-.769 3.906-1.578 5.828-2.388l1.234-.546a125.055 125.055 0 0 0 4.472-2.024c.526-.242 1.073-.485 1.599-.748a272.402 272.402 0 0 0 4.209-2.024l1.416-.708a256.95 256.95 0 0 0 5.262-2.732l.182-.121c1.882-1.012 3.743-2.024 5.585-3.117l.83-.485c1.497-.891 2.994-1.781 4.492-2.712l1.295-.789a125.94 125.94 0 0 0 4.047-2.651l1.153-.769c1.7-1.133 3.38-2.266 5.039-3.44a214.84 214.84 0 0 0 5.221-3.824l.465-.344a185.709 185.709 0 0 0 4.432-3.461l1.012-.809c1.335-1.073 2.651-2.165 4.047-3.258l.91-.769a220.85 220.85 0 0 0 9.43-8.539l.122-.122a169.138 169.138 0 0 0 4.29-4.229l.748-.789c1.255-1.255 2.469-2.55 3.683-3.845l.708-.769a226.796 226.796 0 0 0 12.283-14.509l.587-.789a219.81 219.81 0 0 0 3.258-4.351c.202-.263.405-.526.587-.809a175.925 175.925 0 0 0 3.561-5.079 282 282 0 0 1-387.542 81.545 282.012 282.012 0 0 1-97.606-106.84 321.13 321.13 0 0 1-.243-12.505 308.506 308.506 0 0 1 90.276-218.308 308.51 308.51 0 0 1 218.236-90.447l-5.909 1.214Z" fill="url(#i)"/>
  </g>
  <circle cx="339.524" cy="249.829" r="26.306" fill="url(#j)"/>
  <circle cx="353.858" cy="138.306" r="34.401" fill="url(#k)"/>
  <circle cx="417.79" cy="86.781" r="17.2" fill="url(#l)"/>
  <circle cx="300.368" cy="100.416" r="13.153" fill="url(#m)"/>
  <path d="M275.302 291.207c5.837-12.038 9.11-25.55 9.11-39.828 0-50.467-40.898-91.379-91.348-91.379-47.241 0-86.106 35.872-90.86 81.872-23.107 9.66-63.588 35.482-72.335 76.108-9.386 43.594 59.426 76.413 101.405 78.804 6.844 20.47 32.191 43.566 69.172 63.075 15.048 7.939 28.547 13.345 41.037 18.347 18.203 7.289 34.264 13.72 49.86 25.886 7.415 5.784 11.733 33.534 11.733 44.432-.976 3.726-2.09 7.275-3.318 11.184-2.428 7.732-5.298 16.872-8.415 31.572-4.693 22.132-1.955 53.933 0 67.067l-7.542 21.797c4.022 22.132 68.72 31.123 99.728 29.342 5.46-6.245 4.96-15.665 4.47-24.91-.14-2.635-.279-5.256-.279-7.785 0-11.402-23.466-22.077-35.199-25.989 6.035-10.06 24.863-70.141 33.523-98.924-2.235-.28-.168-.168 25.98 2.515 26.147 2.682 56.608-1.124 75.603-7.831 18.996-6.706 10.717-24.026 10.717-24.026-6.034-12.073-28.215-17.326-38.551-18.444 12.571-37.725 10.895-85.511 0-103.954-8.716-14.755-71.793-20.68-102.243-20.121-1.118-3.353-6.369-13.749-18.437-28.503-12.069-14.755-41.903-37.446-55.312-46.947l-8.499-13.36Z" fill="url(#n)"/>
  <path d="M275.302 291.207c5.837-12.038 9.11-25.55 9.11-39.828 0-50.467-40.898-91.379-91.348-91.379-47.241 0-86.106 35.872-90.86 81.872-23.107 9.66-63.588 35.482-72.335 76.108-9.386 43.594 59.426 76.413 101.405 78.804 6.844 20.47 32.191 43.566 69.172 63.075 15.048 7.939 28.547 13.345 41.037 18.347 18.203 7.289 34.264 13.72 49.86 25.886 7.415 5.784 11.733 33.534 11.733 44.432-.976 3.726-2.09 7.275-3.318 11.184-2.428 7.732-5.298 16.872-8.415 31.572-4.693 22.132-1.955 53.933 0 67.067l-7.542 21.797c4.022 22.132 68.72 31.123 99.728 29.342 5.46-6.245 4.96-15.665 4.47-24.91-.14-2.635-.279-5.256-.279-7.785 0-11.402-23.466-22.077-35.199-25.989 6.035-10.06 24.863-70.141 33.523-98.924-2.235-.28-.168-.168 25.98 2.515 26.147 2.682 56.608-1.124 75.603-7.831 18.996-6.706 10.717-24.026 10.717-24.026-6.034-12.073-28.215-17.326-38.551-18.444 12.571-37.725 10.895-85.511 0-103.954-8.716-14.755-71.793-20.68-102.243-20.121-1.118-3.353-6.369-13.749-18.437-28.503-12.069-14.755-41.903-37.446-55.312-46.947l-8.499-13.36Z" fill="url(#o)"/>
  <path d="M240.666 173.509c-.738.635-1.454 1.312-2.212 2.026-3.854 3.636-8.751 8.254-22.657 13.472-18.787 7.048-49.578 10.819-62.624 7.883l-7.828 54.767c8.806 29.367 40.118 51.882 87.086 51.882 27.629 0 41.953-15.568 48.638-27.441a91.52 91.52 0 0 0 3.343-24.582c0-33.021-17.509-61.951-43.746-78.007Z" fill="url(#p)"/>
  <path d="M416.47 554.876c14.543-25.459 41.309-94.291 30.644-111.115-13.504-21.302-31.683-51.512-88.297-43.718-14.024 3.637-45.048 38.638-55.576 43.718 4.555-1.633 8.567-2.672 11.751-2.895 22.334-1.558 61.808 2.598 75.312 23.901 10.454 16.491-12.026 62.863-21.099 87.512 4.297-3.337 47.265 2.597 47.265 2.597Z" fill="url(#q)"/>
  <path d="M386.695 552.164c9.041-24.122 23.819-74.733 13.154-91.556-13.504-21.303-52.978-25.459-75.312-23.901-17.868 1.247-61.809 28.231-81.546 41.566 23.269 8.133 41.93 20.798 48.352 26.114 7.414 5.783 11.733 33.533 11.733 44.432-.976 3.725-2.09 7.275-3.318 11.184-2.428 7.731-5.298 16.872-8.415 31.571-4.693 22.132-1.956 53.934 0 67.067l-7.543 21.797c4.023 22.133 68.721 31.124 99.729 29.342 5.459-6.244 4.96-15.664 4.47-24.908v-.002c-.14-2.635-.279-5.256-.279-7.785 0-11.401-23.466-22.076-35.199-25.988 6.034-10.061 24.863-70.142 33.522-98.925-.894-.112-1.099-.161.652-.008Z" fill="url(#r)"/>
  <path d="M386.695 552.164c9.041-24.122 23.819-74.733 13.154-91.556-13.504-21.303-52.978-25.459-75.312-23.901-17.868 1.247-61.809 28.231-81.546 41.566 23.269 8.133 41.93 20.798 48.352 26.114 7.414 5.783 11.733 33.533 11.733 44.432-.976 3.725-2.09 7.275-3.318 11.184-2.428 7.731-5.298 16.872-8.415 31.571-4.693 22.132-1.956 53.934 0 67.067l-7.543 21.797c4.023 22.133 68.721 31.124 99.729 29.342 5.459-6.244 4.96-15.664 4.47-24.908v-.002c-.14-2.635-.279-5.256-.279-7.785 0-11.401-23.466-22.076-35.199-25.988 6.034-10.061 24.863-70.142 33.522-98.925-.894-.112-1.099-.161.652-.008Z" fill="url(#s)"/>
  <path d="M400.242 460.608c2.479 3.911 3.583 9.647 3.704 16.453-.574-4.423-1.723-8.189-3.587-11.036-14.677-22.412-57.579-26.786-81.853-25.146-7.673.519-19.772 5.265-32.924 11.683 15.436-8.389 30.551-15.241 39.347-15.855 22.334-1.558 61.809 2.598 75.313 23.901Z" fill="url(#t)"/>
  <rect width="83.113" height="59.204" rx="15" transform="rotate(-36.289 661.29 -146.455) skewX(-.019)" fill="url(#u)"/>
  <rect width="83.113" height="59.204" rx="15" transform="rotate(-36.289 661.29 -146.455) skewX(-.019)" fill="url(#v)"/>
  <rect width="83.113" height="59.204" rx="17" transform="rotate(-36.289 656.535 -148.013) skewX(-.019)" fill="url(#w)"/>
  <path d="M165.185 164.156c-29.679 12.824-51.211 40.94-54.671 74.422-23.106 9.66-63.587 35.482-72.334 76.108-9.387 43.593 59.425 76.413 101.404 78.804 6.844 20.47 32.191 43.566 69.172 63.075 15.048 7.939 28.547 13.345 41.037 18.346 18.204 7.289 34.264 13.721 49.86 25.887 7.415 5.784 11.733 33.533 11.733 44.432-.972 3.716-2.084 7.256-3.309 11.154l-.009.03-.003.012c-2.428 7.729-5.297 16.868-8.412 31.559-4.692 22.132-1.955 53.934 0 67.068l-7.542 21.797c3.767 20.726 60.747 29.928 93.437 29.55a16.044 16.044 0 0 1-2.019 2.909c-31.008 1.781-95.706-7.21-99.728-29.342l7.542-21.797c-1.956-13.134-4.693-44.935 0-67.067 3.114-14.692 5.983-23.831 8.412-31.559l.003-.012c1.227-3.91 2.342-7.459 3.318-11.185 0-10.898-4.318-38.648-11.733-44.432-15.596-12.166-31.657-18.597-49.86-25.886-12.49-5.002-25.989-10.408-41.037-18.347-36.981-19.509-62.328-42.605-69.173-63.075-41.978-2.391-110.79-35.21-101.404-78.804 8.747-40.626 49.228-66.448 72.335-76.108 3.775-36.533 29.066-66.678 62.981-77.539Z" fill="url(#x)"/>
  <path d="M359.158 380.323v.172c34.114 1.136 83.912 7.295 91.75 19.962 11.41 18.443 13.165 66.229 0 103.955 10.825 1.117 34.055 6.371 40.374 18.443 0 0 8.67 17.32-11.224 24.027-14.17 4.777-34.432 8.083-54.816 8.62 22.92.647 47.182-2.95 63.246-8.622 18.996-6.707 10.717-24.027 10.717-24.027-6.034-12.072-28.215-17.325-38.551-18.443 12.571-37.726 10.895-85.511 0-103.955-8.645-14.635-70.773-20.582-101.496-20.132Z" fill="url(#y)"/>
  <path d="M165.974 338.674c-27.139-15.842-45.376-45.282-45.376-78.982 0-50.467 40.899-91.379 91.349-91.379 9.432 0 18.53 1.43 27.09 4.085C225.533 164.516 209.826 160 193.064 160c-50.45 0-91.348 40.912-91.348 91.379 0 41.032 27.035 75.748 64.258 87.295Z" fill="url(#z)"/>
  <path d="M492.759 282.849h-8.28l52-84.971h17.72V292h-17.72v-69.429l4.067 1.162L498.569 292H478.96l-42.122-67.977 4.212-1.162V292h-17.721v-94.122h17.721l51.709 84.971Zm132.851 10.894c-11.717 0-21.836-1.937-30.357-5.81-8.522-3.97-15.106-9.586-19.754-16.849-4.551-7.262-6.827-15.929-6.827-26 0-10.264 2.276-19.027 6.827-26.29 4.648-7.262 11.232-12.83 19.754-16.703 8.521-3.971 18.64-5.956 30.357-5.956 11.813 0 21.932 1.985 30.357 5.956 8.521 3.873 15.057 9.441 19.609 16.703 4.648 7.263 6.972 16.026 6.972 26.29 0 10.071-2.324 18.738-6.972 26-4.552 7.263-11.088 12.879-19.609 16.849-8.425 3.873-18.544 5.81-30.357 5.81Zm0-15.542c7.553 0 14.186-1.21 19.899-3.631 5.81-2.421 10.361-6.052 13.653-10.894 3.293-4.938 4.939-11.135 4.939-18.592 0-7.456-1.646-13.653-4.939-18.592-3.292-4.938-7.843-8.618-13.653-11.038-5.713-2.518-12.346-3.777-19.899-3.777-7.36 0-13.993 1.259-19.899 3.777-5.81 2.42-10.41 6.1-13.799 11.038-3.292 4.939-4.939 11.136-4.939 18.592 0 7.457 1.647 13.654 4.939 18.592 3.389 4.842 7.989 8.473 13.799 10.894 5.906 2.421 12.539 3.631 19.899 3.631Zm124.721 15.542c-11.716 0-21.835-1.937-30.357-5.81-8.521-3.97-15.106-9.586-19.754-16.849-4.551-7.262-6.826-15.929-6.826-26 0-10.264 2.275-19.027 6.826-26.29 4.648-7.262 11.233-12.83 19.754-16.703 8.522-3.971 18.641-5.956 30.357-5.956 11.814 0 21.933 1.985 30.358 5.956 8.521 3.873 15.057 9.441 19.608 16.703 4.648 7.263 6.972 16.026 6.972 26.29 0 10.071-2.324 18.738-6.972 26-4.551 7.263-11.087 12.879-19.608 16.849-8.425 3.873-18.544 5.81-30.358 5.81Zm0-15.542c7.553 0 14.186-1.21 19.9-3.631 5.81-2.421 10.361-6.052 13.653-10.894 3.292-4.938 4.939-11.135 4.939-18.592 0-7.456-1.647-13.653-4.939-18.592-3.292-4.938-7.843-8.618-13.653-11.038-5.714-2.518-12.347-3.777-19.9-3.777-7.359 0-13.992 1.259-19.899 3.777-5.81 2.42-10.409 6.1-13.798 11.038-3.293 4.939-4.939 11.136-4.939 18.592 0 7.457 1.646 13.654 4.939 18.592 3.389 4.842 7.988 8.473 13.798 10.894 5.907 2.421 12.54 3.631 19.899 3.631Zm162.487-4.357-5.52 2.179v-78.145h17.866V292h-17.866l-73.205-75.384 5.519-2.179V292h-17.72v-94.122h17.72l73.206 75.966Z" fill="url(#A)"/>
  <path d="M521.986 368.627h31.229c.484 2.615 2.227 4.89 5.229 6.827 3.098 1.937 7.165 3.438 12.201 4.503 5.035.968 10.845 1.452 17.43 1.452 6.294 0 11.329-.339 15.106-1.017 3.776-.677 6.487-1.743 8.134-3.195 1.646-1.453 2.469-3.341 2.469-5.665 0-2.13-1.211-3.776-3.631-4.938-2.421-1.162-6.585-2.034-12.492-2.615-5.907-.678-14.041-1.21-24.402-1.597-7.843-.388-14.815-1.114-20.916-2.179-6.003-1.162-11.087-2.76-15.251-4.793-4.164-2.131-7.311-4.745-9.441-7.844-2.034-3.195-3.05-6.923-3.05-11.184 0-6.585 2.081-12.153 6.245-16.704 4.261-4.551 10.604-7.989 19.028-10.313 8.521-2.42 19.076-3.631 31.664-3.631 18.592 0 32.827 3.099 42.704 9.296 9.877 6.198 14.767 14.912 14.67 26.145h-29.631c-.484-4.261-3.244-7.408-8.279-9.441-5.036-2.034-11.911-3.05-20.626-3.05-8.424 0-14.912.726-19.463 2.178-4.551 1.453-6.827 3.922-6.827 7.408 0 1.549.581 2.857 1.743 3.922 1.259 1.065 3.341 1.985 6.246 2.76 2.905.677 6.923 1.258 12.056 1.743 5.229.387 11.813.774 19.754 1.162 8.327.387 15.541 1.162 21.642 2.324 6.1 1.065 11.136 2.614 15.106 4.648 3.97 2.033 6.923 4.648 8.86 7.843 1.937 3.196 2.905 7.02 2.905 11.475 0 6.584-1.985 12.152-5.955 16.703-3.874 4.455-10.023 7.795-18.447 10.023-8.424 2.227-19.415 3.34-32.972 3.34-8.327 0-15.832-.629-22.513-1.888-6.682-1.162-12.589-2.856-17.721-5.084-5.035-2.324-9.296-4.986-12.782-7.988-3.389-3.099-5.955-6.391-7.698-9.877-1.646-3.486-2.421-7.069-2.324-10.749Zm157.639-25.418h90.636v22.804h-90.636v-22.804Zm87.004-34.86h29.05v93.395h-29.05v-93.395Zm-112.132 0h29.195v93.395h-29.195v-93.395Zm160.524 0h29.05v93.395h-29.05v-93.395Zm172.83 68.848-10.313 5.519v-74.367h29.052v93.395h-29.052l-95.429-67.831 10.458-5.665v73.496h-29.195v-93.395h29.195l95.284 68.848Zm64.759-14.67v16.413h94.41v22.804h-123.61v-93.395h123.47v22.804h-94.27v16.558h77.13v14.816h-77.13Z" fill="url(#B)"/>
  <defs>
    <radialGradient id="b" cx="0" cy="0" r="1" gradientUnits="userSpaceOnUse" gradientTransform="rotate(90 -77.726 343.61) scale(305.355)">
      <stop offset=".01" stop-color="#5D0AF5"/>
      <stop offset="1" stop-color="#2F81FD"/>
    </radialGradient>
    <radialGradient id="c" cx="0" cy="0" r="1" gradientUnits="userSpaceOnUse" gradientTransform="rotate(90 13.871 350.803) scale(286.03)">
      <stop offset=".01" stop-color="#9ED5B9"/>
      <stop offset="1" stop-color="#7253CA"/>
    </radialGradient>
    <radialGradient id="d" cx="0" cy="0" r="1" gradientUnits="userSpaceOnUse" gradientTransform="rotate(90 13.871 350.803) scale(286.03)">
      <stop offset=".01" stop-color="#9ED5B9"/>
      <stop offset="1" stop-color="#7253CA"/>
    </radialGradient>
    <radialGradient id="e" cx="0" cy="0" r="1" gradientUnits="userSpaceOnUse" gradientTransform="rotate(90 32.417 287.577) scale(256.547)">
      <stop offset=".01" stop-color="#9ED5B9"/>
      <stop offset="1" stop-color="#016496"/>
    </radialGradient>
    <radialGradient id="f" cx="0" cy="0" r="1" gradientUnits="userSpaceOnUse" gradientTransform="rotate(90 174.977 431.332) scale(76.8952)">
      <stop offset=".01" stop-color="#9ED5B9"/>
      <stop offset="1" stop-color="#016496"/>
    </radialGradient>
    <radialGradient id="g" cx="0" cy="0" r="1" gradientUnits="userSpaceOnUse" gradientTransform="rotate(90 -93.378 501.882) scale(389.98)">
      <stop offset=".01" stop-color="#0797FF"/>
      <stop offset="1" stop-color="#894EF6"/>
    </radialGradient>
    <radialGradient id="h" cx="0" cy="0" r="1" gradientUnits="userSpaceOnUse" gradientTransform="rotate(90 30.191 338.207) scale(408.759)">
      <stop offset=".01" stop-color="#9ED5B9"/>
      <stop offset="1" stop-color="#2F81FD"/>
    </radialGradient>
    <radialGradient id="i" cx="0" cy="0" r="1" gradientUnits="userSpaceOnUse" gradientTransform="matrix(130.0209 192.57536 -218.25357 147.35803 221.999 419.142)">
      <stop offset=".01" stop-color="#0797FF"/>
      <stop offset="1" stop-color="#894EF6"/>
    </radialGradient>
    <radialGradient id="n" cx="0" cy="0" r="1" gradientUnits="userSpaceOnUse" gradientTransform="matrix(306.39 0 0 394.677 467.548 390.454)">
      <stop offset=".01" stop-color="#0797FF"/>
      <stop offset="1" stop-color="#894EF6"/>
    </radialGradient>
    <radialGradient id="p" cx="0" cy="0" r="1" gradientUnits="userSpaceOnUse" gradientTransform="matrix(-129.44725 34.00815 -35.17445 -133.8866 274.792 228.021)">
      <stop stop-color="#4EF6EC"/>
      <stop offset="1" stop-color="#0797FF"/>
    </radialGradient>
    <radialGradient id="q" cx="0" cy="0" r="1" gradientUnits="userSpaceOnUse" gradientTransform="rotate(-33.977 985.557 -371.636) scale(59.5016 71.931)">
      <stop stop-color="#2120AD"/>
      <stop offset="1" stop-color="#4B4AFA" stop-opacity="0"/>
    </radialGradient>
    <radialGradient id="r" cx="0" cy="0" r="1" gradientUnits="userSpaceOnUse" gradientTransform="matrix(104.424 0 0 196.43 392.457 551.109)">
      <stop offset=".01" stop-color="#0797FF"/>
      <stop offset="1" stop-color="#894EF6"/>
    </radialGradient>
    <radialGradient id="t" cx="0" cy="0" r="1" gradientUnits="userSpaceOnUse" gradientTransform="matrix(-110.17638 10.63013 -4.27701 -44.32925 395.758 453.454)">
      <stop stop-color="#4EF6EC"/>
      <stop offset="1" stop-color="#0797FF"/>
    </radialGradient>
    <radialGradient id="u" cx="0" cy="0" r="1" gradientUnits="userSpaceOnUse" gradientTransform="matrix(54.05 0 0 42.5073 77.364 24.82)">
      <stop offset=".01" stop-color="#0797FF"/>
      <stop offset="1" stop-color="#894EF6"/>
    </radialGradient>
    <radialGradient id="w" cx="0" cy="0" r="1" gradientUnits="userSpaceOnUse" gradientTransform="rotate(168.682 37.452 16.243) scale(78.8983 63.9002)">
      <stop stop-color="#4EF6EC"/>
      <stop offset="1" stop-color="#0797FF"/>
    </radialGradient>
    <radialGradient id="y" cx="0" cy="0" r="1" gradientUnits="userSpaceOnUse" gradientTransform="rotate(150.303 176.146 324.187) scale(174.065 315.265)">
      <stop stop-color="#4EF6EC"/>
      <stop offset="1" stop-color="#0797FF"/>
    </radialGradient>
    <radialGradient id="A" cx="0" cy="0" r="1" gradientUnits="userSpaceOnUse" gradientTransform="matrix(341.416 0 0 124.928 900.683 230.946)">
      <stop offset=".01" stop-color="#0797FF"/>
      <stop offset="1" stop-color="#894EF6"/>
    </radialGradient>
    <radialGradient id="B" cx="0" cy="0" r="1" gradientUnits="userSpaceOnUse" gradientTransform="matrix(415.552 0 0 124.928 1111.7 340.69)">
      <stop offset=".01" stop-color="#0797FF"/>
      <stop offset="1" stop-color="#894EF6"/>
    </radialGradient>
    <linearGradient id="j" x1="296.865" y1="245.58" x2="396.406" y2="245.58" gradientUnits="userSpaceOnUse">
      <stop offset=".01" stop-color="#0797FF"/>
      <stop offset=".745" stop-color="#894EF6"/>
    </linearGradient>
    <linearGradient id="k" x1="298.074" y1="132.749" x2="428.242" y2="132.749" gradientUnits="userSpaceOnUse">
      <stop offset=".01" stop-color="#0797FF"/>
      <stop offset=".745" stop-color="#894EF6"/>
    </linearGradient>
    <linearGradient id="l" x1="389.898" y1="84.002" x2="454.982" y2="84.002" gradientUnits="userSpaceOnUse">
      <stop offset=".01" stop-color="#0797FF"/>
      <stop offset=".745" stop-color="#894EF6"/>
    </linearGradient>
    <linearGradient id="m" x1="279.039" y1="98.292" x2="328.809" y2="98.292" gradientUnits="userSpaceOnUse">
      <stop offset=".01" stop-color="#0797FF"/>
      <stop offset=".745" stop-color="#894EF6"/>
    </linearGradient>
    <linearGradient id="o" x1="43.497" y1="339.765" x2="162.49" y2="357.648" gradientUnits="userSpaceOnUse">
      <stop stop-color="#4350FA"/>
      <stop offset="1" stop-color="#5A00FF" stop-opacity="0"/>
    </linearGradient>
    <linearGradient id="s" x1="292.334" y1="458.235" x2="422.627" y2="631.822" gradientUnits="userSpaceOnUse">
      <stop stop-color="#6265F9"/>
      <stop offset="1" stop-color="#5A00FF" stop-opacity="0"/>
    </linearGradient>
    <linearGradient id="v" x1="2.557" y1="19.361" x2="22.797" y2="24.343" gradientUnits="userSpaceOnUse">
      <stop stop-color="#4350FA"/>
      <stop offset="1" stop-color="#5A00FF" stop-opacity="0"/>
    </linearGradient>
    <linearGradient id="x" x1="23.287" y1="295.609" x2="422.323" y2="613.718" gradientUnits="userSpaceOnUse">
      <stop offset=".01" stop-color="#C2A4FF"/>
      <stop offset="1" stop-color="#894EF6"/>
    </linearGradient>
    <linearGradient id="z" x1="176.174" y1="140.776" x2="120.046" y2="283.126" gradientUnits="userSpaceOnUse">
      <stop offset=".01" stop-color="#0797FF"/>
      <stop offset="1" stop-color="#894EF6"/>
    </linearGradient>
  </defs>
</svg>
