<svg width="637" height="710" viewBox="0 0 637 710" fill="none" xmlns="http://www.w3.org/2000/svg">
<mask id="mask0_32_552" style="mask-type:alpha" maskUnits="userSpaceOnUse" x="-6" y="0" width="679" height="679">
<path d="M356.748 518.562C492.225 554.863 631.479 474.465 667.78 338.988C669.427 332.84 670.834 326.684 672.007 320.531C673.963 355.559 670.472 391.491 660.897 427.226C612.447 608.042 426.59 715.346 245.774 666.897C64.958 618.447 -42.3464 432.59 6.10316 251.774C54.5527 70.958 240.409 -36.3464 421.226 12.1032C430.464 14.5786 439.511 17.4127 448.354 20.5866C326.415 7.94727 209.916 85.3341 177.173 207.53C140.872 343.008 221.27 482.261 356.748 518.562Z" fill="#D9D9D9"/>
</mask>
<g mask="url(#mask0_32_552)">
<path d="M636.215 318.659C636.303 258.711 619.371 199.97 587.386 149.267C615.427 197.923 623.92 255.42 611.143 310.104C598.365 364.789 565.274 412.569 518.576 443.762C471.878 474.954 415.067 487.223 359.658 478.084C304.249 468.944 254.388 439.079 220.182 394.542C185.975 350.005 169.981 294.128 175.443 238.237C180.905 182.346 207.413 130.622 249.595 93.5498C291.777 56.4775 346.476 36.8303 402.606 38.5905C458.736 40.3507 512.097 63.3866 551.873 103.029C501.589 48.5519 433.856 13.351 360.376 3.50917C286.896 -6.3327 212.286 9.80272 149.439 49.1272C86.5923 88.4518 39.4564 148.495 16.1768 218.881C-7.10296 289.267 -5.06389 365.574 21.9414 434.617C48.9468 503.659 99.2219 561.1 164.079 597.012C228.937 632.924 304.302 645.052 377.151 631.3C450 617.548 515.758 578.78 563.06 521.695C610.362 464.611 636.237 392.796 636.215 318.659Z" fill="url(#paint0_radial_32_552)"/>
<path d="M636.215 318.659C636.303 258.711 619.371 199.97 587.386 149.267C615.427 197.922 623.92 255.42 611.143 310.104C598.365 364.789 565.274 412.569 518.576 443.761C471.878 474.953 415.067 487.223 359.658 478.084C304.249 468.944 254.388 439.079 220.182 394.542C185.975 350.005 169.981 294.128 175.443 238.237C180.905 182.346 207.413 130.622 249.595 93.5497C291.777 56.4774 346.476 36.8301 402.606 38.5903C458.736 40.3505 512.097 63.3864 551.873 103.029C532.699 82.2551 510.857 64.1144 486.916 49.0808C409.937 26.9473 327.367 35.6124 256.659 73.2446C185.952 110.877 132.646 174.527 108.01 250.743C83.3739 326.958 89.3372 409.767 124.64 481.666C159.942 553.566 221.817 608.921 297.187 636.034C304.088 636.479 311.069 636.742 318.091 636.742C359.866 636.748 401.232 628.524 439.828 612.541C478.425 596.559 513.495 573.13 543.036 543.592C572.577 514.055 596.01 478.988 611.998 440.394C627.986 401.799 636.215 360.434 636.215 318.659Z" fill="url(#paint1_radial_32_552)"/>
<path d="M636.215 318.659C636.303 258.711 619.371 199.97 587.386 149.267C615.427 197.922 623.92 255.42 611.143 310.104C598.365 364.789 565.274 412.569 518.576 443.761C471.878 474.953 415.067 487.223 359.658 478.084C304.249 468.944 254.388 439.079 220.182 394.542C185.975 350.005 169.981 294.128 175.443 238.237C180.905 182.346 207.413 130.622 249.595 93.5497C291.777 56.4774 346.476 36.8301 402.606 38.5903C458.736 40.3505 512.097 63.3864 551.873 103.029C532.699 82.2551 510.857 64.1144 486.916 49.0808C409.937 26.9473 327.367 35.6124 256.659 73.2446C185.952 110.877 132.646 174.527 108.01 250.743C83.3739 326.958 89.3372 409.767 124.64 481.666C159.942 553.566 221.817 608.921 297.187 636.034C304.088 636.479 311.069 636.742 318.091 636.742C359.866 636.748 401.232 628.524 439.828 612.541C478.425 596.559 513.495 573.13 543.036 543.592C572.577 514.055 596.01 478.988 611.998 440.394C627.986 401.799 636.215 360.434 636.215 318.659Z" fill="url(#paint2_radial_32_552)"/>
<path d="M578.522 383.413C552.983 421.049 516.453 449.887 473.917 465.991C431.38 482.096 384.911 484.682 340.85 473.398C296.79 462.113 257.284 437.507 227.726 402.938C198.168 368.37 179.997 325.522 175.694 280.243C171.39 234.964 181.163 189.461 203.679 149.942C226.195 110.424 260.358 78.816 301.503 59.4327C342.649 40.0493 388.774 33.8348 433.582 41.6373C478.391 49.4397 519.7 70.879 551.872 103.029C523.189 71.9165 488.584 46.8418 450.085 29.2743C411.587 11.7067 369.97 1.99967 327.672 0.721918C285.374 -0.555836 243.247 6.62143 203.758 21.8331C164.269 37.0448 128.214 59.985 97.7047 89.3093C61.718 152.95 51.856 228.081 70.1989 298.853C88.5417 369.626 133.655 430.508 196.024 468.657C258.393 506.807 333.141 519.241 404.501 503.338C475.861 487.434 538.255 444.436 578.522 383.413Z" fill="url(#paint3_radial_32_552)"/>
<path d="M590.625 363.44C612.195 324.231 624.067 280.428 625.248 235.693C617.022 205.14 604.26 175.994 587.387 149.227C606.023 181.729 616.096 218.433 616.663 255.895C617.229 293.357 608.27 330.349 590.625 363.4L590.625 363.44Z" fill="url(#paint4_radial_32_552)"/>
<path d="M636.215 318.659C636.303 258.711 619.371 199.97 587.386 149.267C615.427 197.922 623.92 255.42 611.143 310.104C598.365 364.789 565.274 412.569 518.576 443.761C471.878 474.953 415.067 487.223 359.658 478.084C304.249 468.944 254.388 439.079 220.182 394.542C185.975 350.005 169.981 294.128 175.443 238.237C180.905 182.346 207.413 130.622 249.595 93.5497C291.777 56.4774 346.476 36.8301 402.606 38.5903C458.736 40.3505 512.097 63.3864 551.873 103.029C532.699 82.2551 510.857 64.1144 486.916 49.0808C409.937 26.9473 327.367 35.6124 256.659 73.2446C185.952 110.877 132.646 174.527 108.01 250.743C83.3739 326.958 89.3372 409.767 124.64 481.666C159.942 553.566 221.817 608.921 297.187 636.034C304.088 636.479 311.069 636.742 318.091 636.742C359.866 636.748 401.232 628.524 439.828 612.541C478.425 596.559 513.495 573.13 543.036 543.592C572.577 514.055 596.01 478.988 611.998 440.394C627.986 401.799 636.215 360.434 636.215 318.659Z" fill="url(#paint5_radial_32_552)"/>
<path d="M578.523 383.413C552.984 421.049 516.454 449.887 473.918 465.991C431.381 482.096 384.912 484.682 340.851 473.397C296.791 462.113 257.285 437.507 227.727 402.938C198.169 368.369 179.998 325.522 175.695 280.243C171.391 234.964 181.164 189.461 203.68 149.942C226.196 110.424 260.359 78.8159 301.504 59.4326C342.65 40.0493 388.775 33.8347 433.583 41.6372C478.392 49.4396 519.738 56.6251 551.91 88.7752C523.226 57.6627 488.622 32.588 450.123 15.0204C411.625 -2.54712 369.997 -8.30183 327.7 -9.57958C285.402 -10.8573 243.247 6.62134 203.759 21.833C164.27 37.0447 128.215 59.9849 97.7057 89.3092C61.719 152.95 51.857 228.081 70.1998 298.853C88.5427 369.626 133.656 430.508 196.025 468.657C258.394 506.807 333.141 519.241 404.502 503.337C475.862 487.434 538.256 444.436 578.523 383.413Z" fill="url(#paint6_radial_32_552)"/>
<path d="M395.735 38.3352C366.543 38.0559 337.585 43.5644 310.533 54.5425C283.482 65.5206 258.875 81.7507 238.133 102.295C217.392 122.839 200.927 147.29 189.69 174.235C178.454 201.179 172.669 230.084 172.669 259.277C172.669 288.471 178.454 317.376 189.69 344.32C200.927 371.265 217.392 395.716 238.133 416.26C258.875 436.804 283.482 453.034 310.533 464.012C337.585 474.991 366.543 480.499 395.735 480.22C397.921 480.22 400.086 480.22 402.231 480.22C402.919 480.22 403.587 480.22 404.255 480.22C405.752 480.22 407.27 480.098 408.767 480.017C409.516 480.017 410.265 480.017 411.013 479.876C412.511 479.775 413.988 479.653 415.465 479.511C416.133 479.511 416.821 479.512 417.489 479.35C419.512 479.147 421.536 478.925 423.559 478.682C423.681 478.682 423.782 478.682 423.903 478.682C425.927 478.419 428.112 478.115 430.197 477.771C430.804 477.771 431.411 477.569 432.038 477.468C433.515 477.225 435.013 476.982 436.49 476.699C437.198 476.557 437.886 476.436 438.513 476.294C439.97 476.011 441.407 475.707 442.844 475.404L444.746 474.979C446.648 474.554 448.53 474.109 450.412 473.623C450.554 473.623 450.675 473.623 450.817 473.522C452.84 472.996 454.864 472.449 456.887 471.862C457.413 471.721 457.94 471.559 458.466 471.397C459.963 470.952 461.44 470.507 462.918 470.041L464.799 469.434L469.069 467.977L470.749 467.37C472.57 466.723 474.391 466.035 476.212 465.347L476.536 465.225C478.56 464.456 480.442 463.647 482.364 462.837L483.598 462.291C485.096 461.643 486.593 460.976 488.07 460.267C488.597 460.025 489.143 459.782 489.669 459.519C491.085 458.851 492.482 458.183 493.878 457.495L495.294 456.787C497.055 455.897 498.815 454.986 500.556 454.055L500.738 453.934C502.62 452.922 504.481 451.91 506.323 450.817L507.153 450.332C508.65 449.441 510.147 448.551 511.645 447.62L512.94 446.831C514.316 445.961 515.692 445.071 516.987 444.18L518.14 443.411C519.84 442.278 521.52 441.145 523.179 439.971C524.946 438.717 526.687 437.442 528.4 436.147L528.865 435.803C530.363 434.669 531.84 433.516 533.297 432.342L534.309 431.533C535.644 430.46 536.96 429.368 538.356 428.275L539.266 427.506C542.484 424.754 545.641 421.901 548.696 418.967L548.818 418.845C550.275 417.469 551.691 416.053 553.108 414.616L553.856 413.827C555.111 412.572 556.325 411.277 557.539 409.982L558.247 409.213C562.537 404.559 566.645 399.702 570.53 394.704L571.117 393.915C572.23 392.478 573.303 391.021 574.375 389.564C574.578 389.301 574.78 389.038 574.962 388.755C576.176 387.075 577.37 385.396 578.523 383.676C551.435 424.577 514.145 457.705 470.336 479.786C426.528 501.867 377.717 512.137 328.725 509.583C279.734 507.028 232.256 491.738 190.981 465.221C149.707 438.704 116.064 401.878 93.3753 358.381C93.2135 354.226 93.1325 350.058 93.1325 345.876C93.1006 305.341 101.057 265.197 116.547 227.739C132.037 190.28 154.756 156.242 183.408 127.568C212.059 98.8943 246.08 76.1477 283.526 60.6284C320.972 45.109 361.109 37.1211 401.644 37.1211L395.735 38.3352Z" fill="url(#paint7_radial_32_552)"/>
</g>
<circle cx="339.523" cy="249.829" r="26.3063" fill="url(#paint8_linear_32_552)"/>
<circle cx="353.858" cy="138.306" r="34.4005" fill="url(#paint9_linear_32_552)"/>
<circle cx="417.79" cy="86.7808" r="17.2002" fill="url(#paint10_linear_32_552)"/>
<circle cx="300.367" cy="100.416" r="13.1531" fill="url(#paint11_linear_32_552)"/>
<path d="M275.302 291.207C281.139 279.169 284.412 265.657 284.412 251.379C284.412 200.912 243.514 160 193.064 160C145.823 160 106.958 195.872 102.204 241.872C79.0973 251.532 38.6163 277.354 29.8693 317.98C20.4826 361.574 89.2946 394.393 131.274 396.784C138.118 417.254 163.465 440.35 200.446 459.859C215.494 467.798 228.993 473.204 241.483 478.206C259.686 485.495 275.747 491.926 291.343 504.092C298.758 509.876 303.076 537.626 303.076 548.524C302.1 552.25 300.986 555.799 299.758 559.708C297.33 567.44 294.46 576.58 291.343 591.28C286.65 613.412 289.388 645.213 291.343 658.347L283.801 680.144C287.823 702.276 352.521 711.267 383.529 709.486C388.989 703.241 388.489 693.821 387.999 684.576C387.859 681.941 387.72 679.32 387.72 676.791C387.72 665.389 364.254 654.714 352.521 650.802C358.556 640.742 377.384 580.661 386.044 551.878C383.809 551.598 385.876 551.71 412.024 554.393C438.171 557.075 468.632 553.269 487.627 546.562C506.623 539.856 498.344 522.536 498.344 522.536C492.31 510.463 470.129 505.21 459.793 504.092C472.364 466.367 470.688 418.581 459.793 400.138C451.077 385.383 388 379.458 357.55 380.017C356.432 376.664 351.181 366.268 339.113 351.514C327.044 336.759 297.21 314.068 283.801 304.567L275.302 291.207Z" fill="url(#paint12_radial_32_552)"/>
<path d="M275.302 291.207C281.139 279.169 284.412 265.657 284.412 251.379C284.412 200.912 243.514 160 193.064 160C145.823 160 106.958 195.872 102.204 241.872C79.0973 251.532 38.6163 277.354 29.8693 317.98C20.4826 361.574 89.2946 394.393 131.274 396.784C138.118 417.254 163.465 440.35 200.446 459.859C215.494 467.798 228.993 473.204 241.483 478.206C259.686 485.495 275.747 491.926 291.343 504.092C298.758 509.876 303.076 537.626 303.076 548.524C302.1 552.25 300.986 555.799 299.758 559.708C297.33 567.44 294.46 576.58 291.343 591.28C286.65 613.412 289.388 645.213 291.343 658.347L283.801 680.144C287.823 702.276 352.521 711.267 383.529 709.486C388.989 703.241 388.489 693.821 387.999 684.576C387.859 681.941 387.72 679.32 387.72 676.791C387.72 665.389 364.254 654.714 352.521 650.802C358.556 640.742 377.384 580.661 386.044 551.878C383.809 551.598 385.876 551.71 412.024 554.393C438.171 557.075 468.632 553.269 487.627 546.562C506.623 539.856 498.344 522.536 498.344 522.536C492.31 510.463 470.129 505.21 459.793 504.092C472.364 466.367 470.688 418.581 459.793 400.138C451.077 385.383 388 379.458 357.55 380.017C356.432 376.664 351.181 366.268 339.113 351.514C327.044 336.759 297.21 314.068 283.801 304.567L275.302 291.207Z" fill="url(#paint13_linear_32_552)"/>
<path d="M240.666 173.509C239.928 174.144 239.212 174.821 238.454 175.535C234.6 179.171 229.703 183.789 215.797 189.007C197.01 196.055 166.219 199.826 153.173 196.89L145.345 251.657C154.151 281.024 185.463 303.539 232.431 303.539C260.06 303.539 274.384 287.971 281.069 276.098C283.247 268.276 284.412 260.032 284.412 251.516C284.412 218.495 266.903 189.565 240.666 173.509Z" fill="url(#paint14_radial_32_552)"/>
<path d="M416.47 554.876C431.013 529.417 457.78 460.585 447.115 443.761C433.61 422.459 415.431 392.249 358.817 400.043C344.793 403.68 313.77 438.681 303.242 443.761C307.797 442.128 311.809 441.089 314.992 440.866C337.326 439.308 376.8 443.464 390.305 464.767C400.758 481.258 378.278 527.63 369.205 552.279C373.502 548.942 416.47 554.876 416.47 554.876Z" fill="url(#paint15_radial_32_552)"/>
<path d="M386.695 552.164C395.737 528.042 410.514 477.431 399.85 460.608C386.345 439.305 346.871 435.149 324.537 436.707C306.67 437.954 262.729 464.938 242.992 478.273C266.261 486.406 284.921 499.071 291.343 504.387C298.758 510.17 303.076 537.92 303.076 548.819C302.1 552.544 300.986 556.094 299.759 560.003C297.33 567.734 294.46 576.875 291.343 591.574C286.65 613.706 289.388 645.508 291.343 658.641L283.801 680.438C287.824 702.571 352.521 711.562 383.53 709.78C388.988 703.536 388.489 694.116 387.999 684.872L387.999 684.87C387.859 682.235 387.72 679.614 387.72 677.085C387.72 665.684 364.255 655.009 352.521 651.097C358.556 641.036 377.384 580.955 386.044 552.172C385.15 552.06 384.944 552.011 386.695 552.164Z" fill="url(#paint16_radial_32_552)"/>
<path d="M386.695 552.164C395.737 528.042 410.514 477.431 399.85 460.608C386.345 439.305 346.871 435.149 324.537 436.707C306.67 437.954 262.729 464.938 242.992 478.273C266.261 486.406 284.921 499.071 291.343 504.387C298.758 510.17 303.076 537.92 303.076 548.819C302.1 552.544 300.986 556.094 299.759 560.003C297.33 567.734 294.46 576.875 291.343 591.574C286.65 613.706 289.388 645.508 291.343 658.641L283.801 680.438C287.824 702.571 352.521 711.562 383.53 709.78C388.988 703.536 388.489 694.116 387.999 684.872L387.999 684.87C387.859 682.235 387.72 679.614 387.72 677.085C387.72 665.684 364.255 655.009 352.521 651.097C358.556 641.036 377.384 580.955 386.044 552.172C385.15 552.06 384.944 552.011 386.695 552.164Z" fill="url(#paint17_linear_32_552)"/>
<path d="M400.242 460.608C402.721 464.519 403.825 470.255 403.946 477.061C403.372 472.638 402.223 468.872 400.359 466.025C385.682 443.613 342.78 439.239 318.506 440.879C310.833 441.398 298.734 446.144 285.582 452.562C301.018 444.173 316.133 437.321 324.929 436.707C347.263 435.149 386.738 439.305 400.242 460.608Z" fill="url(#paint18_radial_32_552)"/>
<rect width="83.1134" height="59.2042" rx="15" transform="matrix(0.806041 -0.59186 0.591599 0.806232 214.944 362.985)" fill="url(#paint19_radial_32_552)"/>
<rect width="83.1134" height="59.2042" rx="15" transform="matrix(0.806041 -0.59186 0.591599 0.806232 214.944 362.985)" fill="url(#paint20_linear_32_552)"/>
<rect width="83.1134" height="59.2042" rx="17" transform="matrix(0.806041 -0.59186 0.591599 0.806232 214.944 359.868)" fill="url(#paint21_radial_32_552)"/>
<path d="M165.185 164.156C135.506 176.98 113.974 205.096 110.514 238.578C87.4077 248.238 46.9267 274.06 38.1796 314.686C28.7929 358.279 97.6049 391.099 139.584 393.49C146.428 413.96 171.775 437.056 208.756 456.565C223.804 464.504 237.303 469.91 249.793 474.911C267.997 482.2 284.057 488.632 299.653 500.798C307.068 506.582 311.386 534.331 311.386 545.23C310.414 548.946 309.302 552.486 308.077 556.384L308.068 556.414L308.065 556.426C305.637 564.155 302.768 573.294 299.653 587.985C294.961 610.117 297.698 641.919 299.653 655.053L292.111 676.85C295.878 697.576 352.858 706.778 385.548 706.4C384.988 707.43 384.321 708.403 383.529 709.309C352.521 711.09 287.823 702.099 283.801 679.967L291.343 658.17C289.387 645.036 286.65 613.235 291.343 591.103C294.457 576.411 297.326 567.272 299.755 559.544L299.758 559.532C300.985 555.622 302.1 552.073 303.076 548.347C303.076 537.449 298.758 509.699 291.343 503.915C275.747 491.749 259.686 485.318 241.483 478.029C228.993 473.027 215.494 467.621 200.446 459.682C163.465 440.173 138.118 417.077 131.273 396.607C89.2946 394.216 20.4826 361.397 29.8693 317.803C38.6163 277.177 79.0973 251.355 102.204 241.695C105.979 205.162 131.27 175.017 165.185 164.156Z" fill="url(#paint22_linear_32_552)"/>
<path d="M359.158 380.323V380.495C393.272 381.631 443.07 387.79 450.907 400.457C462.318 418.9 464.073 466.686 450.907 504.412C461.733 505.529 484.962 510.783 491.281 522.855C491.281 522.855 499.952 540.175 480.058 546.882C465.888 551.659 445.625 554.965 425.242 555.502C448.161 556.149 472.424 552.552 488.488 546.88C507.483 540.173 499.204 522.853 499.204 522.853C493.17 510.781 470.989 505.528 460.653 504.41C473.224 466.684 471.548 418.899 460.653 400.455C452.008 385.82 389.88 379.873 359.158 380.323Z" fill="url(#paint23_radial_32_552)"/>
<path d="M165.974 338.674C138.834 322.832 120.598 293.392 120.598 259.692C120.598 209.225 161.496 168.313 211.946 168.313C221.378 168.313 230.477 169.743 239.036 172.398C225.533 164.516 209.825 160 193.064 160C142.613 160 101.715 200.912 101.715 251.379C101.715 292.411 128.75 327.127 165.974 338.674Z" fill="url(#paint24_linear_32_552)"/>
<defs>
<radialGradient id="paint0_radial_32_552" cx="0" cy="0" r="1" gradientUnits="userSpaceOnUse" gradientTransform="translate(265.883 421.335) rotate(90) scale(305.355 305.355)">
<stop offset="0.01" stop-color="#5D0AF5"/>
<stop offset="1" stop-color="#2F81FD"/>
</radialGradient>
<radialGradient id="paint1_radial_32_552" cx="0" cy="0" r="1" gradientUnits="userSpaceOnUse" gradientTransform="translate(364.673 336.932) rotate(90) scale(286.03 286.03)">
<stop offset="0.01" stop-color="#9ED5B9"/>
<stop offset="1" stop-color="#7253CA"/>
</radialGradient>
<radialGradient id="paint2_radial_32_552" cx="0" cy="0" r="1" gradientUnits="userSpaceOnUse" gradientTransform="translate(364.673 336.932) rotate(90) scale(286.03 286.03)">
<stop offset="0.01" stop-color="#9ED5B9"/>
<stop offset="1" stop-color="#7253CA"/>
</radialGradient>
<radialGradient id="paint3_radial_32_552" cx="0" cy="0" r="1" gradientUnits="userSpaceOnUse" gradientTransform="translate(319.993 255.16) rotate(90) scale(256.547 256.547)">
<stop offset="0.01" stop-color="#9ED5B9"/>
<stop offset="1" stop-color="#016496"/>
</radialGradient>
<radialGradient id="paint4_radial_32_552" cx="0" cy="0" r="1" gradientUnits="userSpaceOnUse" gradientTransform="translate(606.308 256.354) rotate(90) scale(76.8952 76.8952)">
<stop offset="0.01" stop-color="#9ED5B9"/>
<stop offset="1" stop-color="#016496"/>
</radialGradient>
<radialGradient id="paint5_radial_32_552" cx="0" cy="0" r="1" gradientUnits="userSpaceOnUse" gradientTransform="translate(408.503 595.259) rotate(90) scale(389.98 389.98)">
<stop offset="0.01" stop-color="#0797FF"/>
<stop offset="1" stop-color="#894EF6"/>
</radialGradient>
<radialGradient id="paint6_radial_32_552" cx="0" cy="0" r="1" gradientUnits="userSpaceOnUse" gradientTransform="translate(368.397 308.015) rotate(90) scale(408.759 408.759)">
<stop offset="0.01" stop-color="#9ED5B9"/>
<stop offset="1" stop-color="#2F81FD"/>
</radialGradient>
<radialGradient id="paint7_radial_32_552" cx="0" cy="0" r="1" gradientUnits="userSpaceOnUse" gradientTransform="translate(221.998 419.142) rotate(55.974) scale(232.359 263.342)">
<stop offset="0.01" stop-color="#0797FF"/>
<stop offset="1" stop-color="#894EF6"/>
</radialGradient>
<linearGradient id="paint8_linear_32_552" x1="296.864" y1="245.58" x2="396.405" y2="245.58" gradientUnits="userSpaceOnUse">
<stop offset="0.01" stop-color="#0797FF"/>
<stop offset="0.744903" stop-color="#894EF6"/>
</linearGradient>
<linearGradient id="paint9_linear_32_552" x1="298.074" y1="132.749" x2="428.242" y2="132.749" gradientUnits="userSpaceOnUse">
<stop offset="0.01" stop-color="#0797FF"/>
<stop offset="0.744903" stop-color="#894EF6"/>
</linearGradient>
<linearGradient id="paint10_linear_32_552" x1="389.898" y1="84.0023" x2="454.982" y2="84.0023" gradientUnits="userSpaceOnUse">
<stop offset="0.01" stop-color="#0797FF"/>
<stop offset="0.744903" stop-color="#894EF6"/>
</linearGradient>
<linearGradient id="paint11_linear_32_552" x1="279.038" y1="98.2916" x2="328.808" y2="98.2916" gradientUnits="userSpaceOnUse">
<stop offset="0.01" stop-color="#0797FF"/>
<stop offset="0.744903" stop-color="#894EF6"/>
</linearGradient>
<radialGradient id="paint12_radial_32_552" cx="0" cy="0" r="1" gradientUnits="userSpaceOnUse" gradientTransform="translate(467.548 390.454) scale(306.39 394.677)">
<stop offset="0.01" stop-color="#0797FF"/>
<stop offset="1" stop-color="#894EF6"/>
</radialGradient>
<linearGradient id="paint13_linear_32_552" x1="43.4966" y1="339.765" x2="162.49" y2="357.648" gradientUnits="userSpaceOnUse">
<stop stop-color="#4350FA"/>
<stop offset="1" stop-color="#5A00FF" stop-opacity="0"/>
</linearGradient>
<radialGradient id="paint14_radial_32_552" cx="0" cy="0" r="1" gradientUnits="userSpaceOnUse" gradientTransform="translate(274.792 228.021) rotate(165.28) scale(133.84 138.43)">
<stop stop-color="#4EF6EC"/>
<stop offset="1" stop-color="#0797FF"/>
</radialGradient>
<radialGradient id="paint15_radial_32_552" cx="0" cy="0" r="1" gradientUnits="userSpaceOnUse" gradientTransform="translate(375.957 487.331) rotate(-33.9765) scale(59.5016 71.931)">
<stop stop-color="#2120AD"/>
<stop offset="1" stop-color="#4B4AFA" stop-opacity="0"/>
</radialGradient>
<radialGradient id="paint16_radial_32_552" cx="0" cy="0" r="1" gradientUnits="userSpaceOnUse" gradientTransform="translate(392.458 551.109) scale(104.424 196.43)">
<stop offset="0.01" stop-color="#0797FF"/>
<stop offset="1" stop-color="#894EF6"/>
</radialGradient>
<linearGradient id="paint17_linear_32_552" x1="292.334" y1="458.235" x2="422.628" y2="631.822" gradientUnits="userSpaceOnUse">
<stop stop-color="#6265F9"/>
<stop offset="1" stop-color="#5A00FF" stop-opacity="0"/>
</linearGradient>
<radialGradient id="paint18_radial_32_552" cx="0" cy="0" r="1" gradientUnits="userSpaceOnUse" gradientTransform="translate(395.758 453.454) rotate(174.489) scale(110.688 44.5351)">
<stop stop-color="#4EF6EC"/>
<stop offset="1" stop-color="#0797FF"/>
</radialGradient>
<radialGradient id="paint19_radial_32_552" cx="0" cy="0" r="1" gradientUnits="userSpaceOnUse" gradientTransform="translate(77.364 24.8202) scale(54.05 42.5073)">
<stop offset="0.01" stop-color="#0797FF"/>
<stop offset="1" stop-color="#894EF6"/>
</radialGradient>
<linearGradient id="paint20_linear_32_552" x1="2.55734" y1="19.3609" x2="22.7966" y2="24.3432" gradientUnits="userSpaceOnUse">
<stop stop-color="#4350FA"/>
<stop offset="1" stop-color="#5A00FF" stop-opacity="0"/>
</linearGradient>
<radialGradient id="paint21_radial_32_552" cx="0" cy="0" r="1" gradientUnits="userSpaceOnUse" gradientTransform="translate(77.364 24.8202) rotate(168.682) scale(78.8983 63.9002)">
<stop stop-color="#4EF6EC"/>
<stop offset="1" stop-color="#0797FF"/>
</radialGradient>
<linearGradient id="paint22_linear_32_552" x1="23.2866" y1="295.609" x2="422.323" y2="613.718" gradientUnits="userSpaceOnUse">
<stop offset="0.01" stop-color="#C2A4FF"/>
<stop offset="1" stop-color="#894EF6"/>
</linearGradient>
<radialGradient id="paint23_radial_32_552" cx="0" cy="0" r="1" gradientUnits="userSpaceOnUse" gradientTransform="translate(489.763 518.53) rotate(150.303) scale(174.065 315.265)">
<stop stop-color="#4EF6EC"/>
<stop offset="1" stop-color="#0797FF"/>
</radialGradient>
<linearGradient id="paint24_linear_32_552" x1="176.173" y1="140.776" x2="120.046" y2="283.126" gradientUnits="userSpaceOnUse">
<stop offset="0.01" stop-color="#0797FF"/>
<stop offset="1" stop-color="#894EF6"/>
</linearGradient>
</defs>
</svg>
