<?xml version="1.0" standalone="no"?>
<!DOCTYPE svg PUBLIC "-//W3C//DTD SVG 20010904//EN"
 "http://www.w3.org/TR/2001/REC-SVG-20010904/DTD/svg10.dtd">
<svg version="1.0" xmlns="http://www.w3.org/2000/svg"
 width="710.000000pt" height="710.000000pt" viewBox="0 0 710.000000 710.000000"
 preserveAspectRatio="xMidYMid meet">
<metadata>
Created by potrace 1.14, written by Peter Selinger 2001-2017
</metadata>
<g transform="translate(0.000000,710.000000) scale(0.100000,-0.100000)"
fill="#000000" stroke="none">
<path d="M3577 7094 c-1 -1 -49 -4 -107 -8 -58 -3 -116 -8 -130 -10 -14 -3
-50 -7 -80 -11 -90 -10 -270 -44 -372 -71 -35 -9 -70 -17 -78 -19 -75 -16
-396 -129 -415 -146 -5 -5 -15 -9 -22 -9 -27 0 -404 -195 -411 -212 -2 -4 -8
-8 -13 -8 -20 0 -342 -223 -395 -274 -6 -6 -36 -31 -65 -56 -70 -58 -289 -277
-359 -359 -50 -58 -126 -156 -175 -225 -11 -16 -29 -40 -40 -55 -11 -14 -26
-35 -32 -46 -186 -302 -234 -396 -348 -680 -5 -11 -9 -22 -10 -25 -1 -3 -5
-12 -8 -20 -28 -67 -96 -362 -112 -485 -4 -27 -8 -61 -10 -75 -27 -190 -26
-643 0 -782 2 -11 7 -39 9 -62 44 -348 191 -778 384 -1117 71 -125 223 -350
288 -425 11 -12 39 -46 64 -75 56 -68 256 -268 335 -336 256 -218 532 -390
836 -518 95 -40 274 -105 329 -120 139 -38 218 -57 280 -70 41 -8 86 -17 100
-20 14 -3 73 -10 133 -17 84 -9 107 -15 108 -28 0 -8 2 -24 4 -35 2 -11 6 -58
9 -104 6 -79 4 -90 -30 -187 -42 -120 -41 -138 16 -193 83 -80 298 -156 530
-186 25 -3 61 -8 80 -10 19 -3 103 -8 185 -12 l150 -6 12 24 c28 54 34 87 33
178 -1 53 -1 106 -1 118 1 31 -14 67 -41 98 -34 39 -142 107 -231 145 -42 19
-76 36 -75 40 2 4 58 145 62 157 1 0 19 4 41 7 67 10 99 16 130 22 17 3 39 7
50 9 33 5 224 55 300 77 181 54 455 172 635 273 120 67 369 237 426 290 6 5
31 26 55 45 77 61 334 322 408 413 153 190 280 386 385 596 86 171 87 175 14
101 -281 -286 -618 -497 -1004 -629 -86 -30 -88 -30 -113 -12 -50 35 -112 62
-201 85 -49 14 -90 22 -90 18 0 -3 -4 -2 -10 4 -6 6 -6 22 0 44 85 287 98 627
34 874 -31 119 -66 161 -171 204 -47 20 -188 58 -253 68 -14 2 -40 6 -58 9
-17 3 -49 8 -70 11 -20 2 -53 6 -72 9 -91 12 -291 24 -401 25 -54 0 -55 1 -72
38 -14 32 -86 148 -109 177 -128 156 -254 273 -488 448 -137 103 -122 88 -169
162 l-38 61 20 44 c10 25 21 52 23 60 37 141 44 185 45 280 2 197 -43 355
-145 514 -45 71 -46 71 -126 151 -57 56 -93 85 -166 133 -84 55 -265 116 -380
127 -38 4 -70 8 -71 9 -4 4 126 227 169 288 37 55 103 141 173 228 29 36 244
250 285 284 242 199 451 320 765 446 93 37 328 102 420 115 22 4 47 8 55 10
85 23 470 40 592 26 32 -4 55 -5 53 -2 -25 24 -469 138 -610 156 -72 9 -116
15 -150 20 -79 12 -487 28 -498 19z"/>
<path d="M4489 6393 c-101 -42 -139 -141 -90 -236 30 -59 66 -84 133 -93 87
-12 173 55 185 144 11 84 -49 175 -124 187 -21 3 -45 8 -54 9 -9 2 -31 -3 -50
-11z"/>
<path d="M3313 6210 c-25 -13 -46 -32 -53 -50 -42 -101 11 -191 114 -192 80
-2 133 58 129 145 -4 87 -106 139 -190 97z"/>
<path d="M3800 6043 c-83 -30 -150 -85 -188 -155 -133 -239 41 -524 311 -513
182 8 324 155 328 339 3 131 -77 258 -196 312 -73 34 -189 41 -255 17z"/>
<path d="M3738 4864 c-2 -1 -16 -5 -32 -8 -43 -8 -103 -42 -136 -78 -91 -100
-84 -276 14 -366 60 -54 94 -67 181 -67 69 0 86 4 126 27 85 50 130 122 135
217 7 139 -99 261 -239 274 -25 3 -47 3 -49 1z"/>
</g>
</svg>
